<?xml version="1.0" encoding="UTF-8"?>
<svg version="1.1" xmlns="http://www.w3.org/2000/svg" width="424" height="589">
<path d="M0 0 C2.39432916 2.56535267 2.60840144 4.40583535 2.75 7.875 C2.22265625 9.96875 2.22265625 9.96875 0.75 11.875 C-1.81106303 12.6177391 -4.0683076 13.08076307 -6.6875 13.4375 C-7.82324463 13.61671997 -7.82324463 13.61671997 -8.98193359 13.79956055 C-12.16379747 14.2970326 -15.35147022 14.7485814 -18.54052734 15.19726562 C-47.2188601 19.25065235 -75.03106605 27.26158247 -99.2109375 43.625 C-101.25 44.875 -101.25 44.875 -103.25 44.875 C-103.58 45.865 -103.91 46.855 -104.25 47.875 C-105.24 47.875 -106.23 47.875 -107.25 47.875 C-107.58 48.865 -107.91 49.855 -108.25 50.875 C-109.81640625 52.3125 -109.81640625 52.3125 -111.8125 53.875 C-120.23015246 61.05564977 -127.79731663 71.52802423 -129.7265625 82.61328125 C-129.98264915 87.16218893 -129.71394129 89.2306371 -127 93 C-124.25391206 95.25055788 -124.25391206 95.25055788 -120.25 94.875 C-117.80738463 93.39768435 -117.80738463 93.39768435 -115.3125 91.375 C-99.52874025 79.51111717 -80.56795461 68.49817637 -61.61328125 62.6484375 C-59.56258864 61.97730174 -57.53786448 61.22779485 -55.51953125 60.46484375 C-7.14652868 42.19819388 55.08110242 27.27407469 104.75 47.875 C104.75 48.535 104.75 49.195 104.75 49.875 C105.471875 50.08125 106.19375 50.2875 106.9375 50.5 C110.73456 52.35634044 112.2481308 54.46967803 114.75 57.875 C116.52668767 63.20506301 116.42810186 68.71355031 114.75 74.0625 C97.87291388 97.79590236 50.71136132 102.76216275 23.88183594 107.34033203 C21.51921143 107.74367999 19.15823756 108.15375166 16.79785156 108.56982422 C13.01127949 109.23661354 9.22286984 109.89209346 5.43322754 110.54119873 C3.9448206 110.7967444 2.45675414 111.05428505 0.96911621 111.31427002 C-22.0305912 115.31528707 -44.83432011 117.3853673 -68.18823242 117.26611328 C-71.9741525 117.24984248 -75.75903108 117.26617935 -79.54492188 117.28515625 C-91.08547006 117.292877 -102.10232022 117.1467361 -113.35473633 114.42041016 C-116.18264816 113.88768775 -117.62467562 113.77502231 -120.25 114.875 C-125.77737253 120.32573652 -130.44411079 126.26446691 -132.25 133.875 C-132.1711508 137.81745993 -131.20921567 141.15232133 -128.8359375 144.3671875 C-120.81551951 151.99251101 -108.70066461 153.77000831 -98.25 155.875 C-98.25 155.215 -98.25 154.555 -98.25 153.875 C-69.65973802 139.68367816 -40.39976882 128.01083399 -9.25 120.875 C-8.32928711 120.66101563 -7.40857422 120.44703125 -6.45996094 120.2265625 C15.77789999 115.08835474 37.66001274 111.68718048 60.52246094 111.68969727 C62.74693748 111.68750302 64.97092251 111.66924554 67.1953125 111.65039062 C93.48945361 111.54687542 93.48945361 111.54687542 102.6875 119.375 C106.03047742 123.42709384 106.09761551 126.74767119 105.75 131.875 C103.1247174 139.44199101 97.25029822 143.25157269 90.4375 146.875 C67.99800702 157.54982729 42.47169482 161.81925581 17.90844727 164.14111328 C13.16565757 164.59250265 8.4576862 165.18112318 3.73828125 165.8359375 C-4.61566214 166.96119647 -12.97347386 167.76427422 -21.375 168.4375 C-22.58126038 168.53812241 -22.58126038 168.53812241 -23.81188965 168.64077759 C-34.94727899 169.5519996 -46.02239723 169.97275155 -57.1953125 170.0078125 C-58.97369003 170.0184095 -58.97369003 170.0184095 -60.78799438 170.02922058 C-66.66544079 170.06091806 -72.53757256 170.04957754 -78.41455078 169.96899414 C-93.01810084 169.63463604 -93.01810084 169.63463604 -105.22558594 176.73852539 C-105.89364258 177.44356201 -106.56169922 178.14859863 -107.25 178.875 C-108.9068351 180.30315254 -110.57234793 181.72135982 -112.25 183.125 C-114.93797125 185.51650383 -117.2709194 187.85720939 -119.25 190.875 C-119.56241113 193.40584814 -119.56241113 193.40584814 -118.25 195.875 C-109.70778801 204.20886536 -94.70704201 206.49801595 -83.25 207.875 C-82.56019043 207.96378418 -81.87038086 208.05256836 -81.15966797 208.14404297 C-76.12287546 208.78129877 -71.08778224 209.27844717 -66.02539062 209.66259766 C-64.15048092 209.80608564 -62.27669853 209.96501536 -60.40429688 210.13818359 C-45.11217052 211.45388547 -36.3477893 208.79030177 -23.69824219 200.39746094 C0.61694166 185.27685 36.09266078 173.19527657 64.875 178.625 C69.35691342 179.82355312 72.38224645 181.92106636 75.0625 185.75 C76.01385272 188.69054477 76.11983143 190.79307139 75.75 193.875 C70.00736516 204.9008589 58.53436892 210.01751526 47.19970703 213.70458984 C29.52617849 218.99608462 11.37554692 222.57872957 -7.0625 223.36328125 C-31.98974828 223.62303504 -31.98974828 223.62303504 -52.53759766 236.11767578 C-54.40002797 238.02896369 -56.36428715 239.75557969 -58.38671875 241.49609375 C-67.70337538 249.55973909 -67.70337538 249.55973909 -74.25 259.875 C-74.57948977 262.71368396 -74.57948977 262.71368396 -73.25 264.875 C-65.8721214 269.78863746 -54.87844895 270.2772242 -46.25 270.875 C-45.14217163 270.97772217 -45.14217163 270.97772217 -44.01196289 271.08251953 C-37.93173653 271.42242803 -34.70356014 269.88987791 -29.9375 266.25 C-28.63236637 265.32193764 -27.32373147 264.39878032 -26.01171875 263.48046875 C-25.05531494 262.80636963 -25.05531494 262.80636963 -24.07958984 262.11865234 C-9.9998873 252.5480619 7.81678797 247.43931536 24.75 248.875 C28.36472847 250.01307927 30.79981807 251.67694452 33.1875 254.6875 C34.36025334 259.24820744 34.32602881 262.64780818 32.3125 266.9375 C22.26562499 278.4546494 4.5350242 283.54668263 -10.25 284.875 C-12.04906777 284.92220293 -13.84877091 284.94847951 -15.6484375 284.95703125 C-25.38384107 284.62417575 -25.38384107 284.62417575 -34.29296875 287.7578125 C-37.60672331 291.41561808 -39.66756834 295.20452209 -41.25 299.875 C-40.98207529 303.19583772 -40.98207529 303.19583772 -39.25 305.875 C-32.36279887 306.83155571 -28.089369 305.58215429 -22.30078125 301.921875 C-20.25 300.875 -20.25 300.875 -16.6875 301.0625 C-15.883125 301.330625 -15.07875 301.59875 -14.25 301.875 C-14.25 302.535 -14.25 303.195 -14.25 303.875 C-13.59 303.875 -12.93 303.875 -12.25 303.875 C-11.4375 307.0625 -11.4375 307.0625 -11.25 310.875 C-15.11984541 316.24285008 -21.1140511 318.8296837 -27.25 320.875 C-42.41825406 322.13452288 -42.41825406 322.13452288 -48.73828125 317.2265625 C-49.23714844 316.78054688 -49.73601562 316.33453125 -50.25 315.875 C-51.03375 315.25625 -51.8175 314.6375 -52.625 314 C-56.36432089 309.11011883 -57.00664112 302.86233407 -56.25 296.875 C-55.42213133 293.80279373 -54.40283425 290.83943092 -53.25 287.875 C-52.59 287.875 -51.93 287.875 -51.25 287.875 C-51.25 286.885 -51.25 285.895 -51.25 284.875 C-52.03761719 284.84921875 -52.82523437 284.8234375 -53.63671875 284.796875 C-64.52735213 284.22978876 -76.74882013 282.6255402 -84.67578125 274.39453125 C-89.08726997 269.36170609 -89.65305118 265.34227371 -89.6015625 258.86328125 C-88.80862194 252.12328652 -84.92690505 245.71317764 -80.25 240.875 C-79.59 240.875 -78.93 240.875 -78.25 240.875 C-78.02054687 240.30910156 -77.79109375 239.74320313 -77.5546875 239.16015625 C-75.90559503 236.27177573 -73.87266567 234.50258963 -71.375 232.3125 C-70.51132813 231.54808594 -69.64765625 230.78367187 -68.7578125 229.99609375 C-66.63694791 228.20227837 -64.47932965 226.5288378 -62.25 224.875 C-63.07387207 224.81554199 -63.89774414 224.75608398 -64.74658203 224.69482422 C-117.25148946 220.73012324 -117.25148946 220.73012324 -130.375 205.625 C-133.53488842 200.99049699 -135.59855643 197.59866355 -135.25 191.875 C-133.02054497 183.58773281 -128.8368201 176.43886698 -122.25 170.875 C-119.5 169.6328125 -119.5 169.6328125 -117.25 168.875 C-117.25 167.885 -117.25 166.895 -117.25 165.875 C-117.889375 165.7925 -118.52875 165.71 -119.1875 165.625 C-126.65755482 163.79559882 -133.6728481 160.22478599 -139.25 154.875 C-140.47265625 152.6875 -140.47265625 152.6875 -141.25 150.875 C-141.91 150.875 -142.57 150.875 -143.25 150.875 C-147.18112847 141.32797371 -148.6020809 134.5488561 -145.37109375 124.53125 C-143.28776818 119.5951476 -140.23881434 115.29708667 -137.25 110.875 C-136.2395505 109.21464775 -135.23625832 107.54983501 -134.25 105.875 C-134.93835938 105.39933594 -134.93835938 105.39933594 -135.640625 104.9140625 C-141.04304787 100.80549721 -143.85164398 96.55398992 -145.25 89.875 C-145.97192795 75.32815187 -139.79655545 61.65336905 -130.25 50.875 C-126.9967983 47.44594956 -123.53600006 44.37799362 -119.92578125 41.33984375 C-118.08370165 39.77557306 -118.08370165 39.77557306 -115.9375 37.4375 C-109.02153329 30.84320616 -100.70056536 26.21668165 -92.25 21.875 C-91.64373779 21.56344971 -91.03747559 21.25189941 -90.4128418 20.9309082 C-70.31455984 10.72618501 -21.57333923 -10.78666962 0 0 Z M-39.25 69.875 C-40.72774422 70.35853567 -42.20675872 70.8382216 -43.6875 71.3125 C-64.66178021 78.38204324 -86.69926585 87.08513745 -104.25 100.875 C-104.25 101.205 -104.25 101.535 -104.25 101.875 C-99.41188573 102.78597405 -94.65540098 103.18295965 -89.75 103.4375 C-88.95029785 103.4792334 -88.1505957 103.5209668 -87.32666016 103.56396484 C-80.29202702 103.90831751 -73.29300287 104.03443806 -66.25 103.875 C-65.01830078 103.84817139 -65.01830078 103.84817139 -63.76171875 103.82080078 C-37.24865322 103.17124964 -11.29150076 99.77583711 14.75 94.875 C15.99072266 94.64409668 17.23144531 94.41319336 18.50976562 94.17529297 C62.71478913 87.61052175 62.71478913 87.61052175 101.75 67.875 C101.6868031 65.46992714 101.6868031 65.46992714 100.75 62.875 C98.25644961 61.02483315 98.25644961 61.02483315 95.125 59.6875 C94.10148438 59.19894531 93.07796875 58.71039063 92.0234375 58.20703125 C53.29575928 42.44791637 -1.91854309 56.44151616 -39.25 69.875 Z M27.75 127.875 C26.92773926 128.00922363 26.10547852 128.14344727 25.25830078 128.28173828 C18.7319426 129.36327644 12.23880386 130.58868294 5.75 131.875 C4.78304199 132.06465332 3.81608398 132.25430664 2.81982422 132.44970703 C-9.56212514 134.90805399 -21.42908288 137.98695816 -33.32177734 142.21240234 C-36.08134738 143.16067698 -38.88216422 143.9489796 -41.6875 144.75 C-50.47755728 147.39379615 -58.84797446 151.20953466 -67.25 154.875 C-67.25 155.205 -67.25 155.535 -67.25 155.875 C-34.71423086 156.91819891 -2.17982208 153.4422792 29.92578125 148.32324219 C32.54191952 147.90802522 35.160363 147.51669041 37.78125 147.1328125 C55.8121716 144.4196243 75.60995155 140.52571487 90.75 129.875 C89.96464337 127.73241837 89.96464337 127.73241837 88.04492188 127.25097656 C79.80627771 125.53199833 71.6213313 125.56444046 63.25 125.625 C62.11250305 125.62965271 62.11250305 125.62965271 60.95202637 125.63439941 C49.77511072 125.68809204 38.78827727 126.01573783 27.75 127.875 Z M-6.25 208.875 C4.07294384 208.84294117 13.85103812 207.25543407 23.9375 205.125 C25.09991211 204.88507324 26.26232422 204.64514648 27.45996094 204.39794922 C38.14817534 202.05716688 48.44176661 198.71970469 57.75 192.875 C57.75 192.545 57.75 192.215 57.75 191.875 C39.20933393 191.09281565 7.80339879 194.82160121 -6.25 208.875 Z M2.5 265.3125 C1.79359375 265.59996094 1.0871875 265.88742187 0.359375 266.18359375 C-0.43726563 266.52583984 -0.43726563 266.52583984 -1.25 266.875 C-1.25 267.205 -1.25 267.535 -1.25 267.875 C3.0677458 267.36702991 6.78302114 266.67817221 10.75 264.875 C7.44564916 263.75122303 5.6993138 263.97945258 2.5 265.3125 Z " fill="#0F1211" transform="translate(223.25,153.125)"/>
<path d="M0 0 C0.88558594 -0.01224609 1.77117187 -0.02449219 2.68359375 -0.03710938 C8.42271185 -0.0497506 14.03708593 0.2815731 19.5 2.1875 C20.16 2.8475 20.82 3.5075 21.5 4.1875 C21.17 5.1775 20.84 6.1675 20.5 7.1875 C17.9375 8.375 17.9375 8.375 15.5 9.1875 C15.5 10.8375 15.5 12.4875 15.5 14.1875 C4.28 14.1875 -6.94 14.1875 -18.5 14.1875 C-17.84 10.8875 -17.18 7.5875 -16.5 4.1875 C-17.49 3.1975 -18.48 2.2075 -19.5 1.1875 C-12.96816547 0.3577446 -6.58180721 0.00479025 0 0 Z " fill="#060D09" transform="translate(277.5,191.8125)"/>
<path d="M0 0 C3 1 3 1 5 3 C6.32 3 7.64 3 9 3 C11.55588921 7.79229228 11.58248228 12.70700886 11 18 C9.5 21.625 9.5 21.625 8 24 C7.01 22.68 6.02 21.36 5 20 C4.34 20.99 3.68 21.98 3 23 C2.34 23 1.68 23 1 23 C0.67 23.66 0.34 24.32 0 25 C-0.66 24.34 -1.32 23.68 -2 23 C-2.99 23.33 -3.98 23.66 -5 24 C-5.99 23.67 -6.98 23.34 -8 23 C-8.99 23.33 -9.98 23.66 -11 24 C-11 23.01 -11 22.02 -11 21 C-10.34 21 -9.68 21 -9 21 C-8.731875 20.38125 -8.46375 19.7625 -8.1875 19.125 C-7 17 -7 17 -4 15 C-4.33 12.36 -4.66 9.72 -5 7 C-4.01 7 -3.02 7 -2 7 C-2 6.34 -2 5.68 -2 5 C-1.34 5 -0.68 5 0 5 C-0.2784375 4.0409375 -0.2784375 4.0409375 -0.5625 3.0625 C-0.706875 2.381875 -0.85125 1.70125 -1 1 C-0.67 0.67 -0.34 0.34 0 0 Z " fill="#0C0E0D" transform="translate(328,206)"/>
<path d="M0 0 C0.845625 0.2475 1.69125 0.495 2.5625 0.75 C2.5625 1.41 2.5625 2.07 2.5625 2.75 C3.2225 2.75 3.8825 2.75 4.5625 2.75 C5.375 5.9375 5.375 5.9375 5.5625 9.75 C2.58892605 13.71476527 -0.84100676 15.95137221 -5.4375 17.75 C-6.4275 17.42 -7.4175 17.09 -8.4375 16.75 C-8.1075 15.43 -7.7775 14.11 -7.4375 12.75 C-8.2625 12.29625 -9.0875 11.8425 -9.9375 11.375 C-10.7625 10.83875 -11.5875 10.3025 -12.4375 9.75 C-12.4375 9.09 -12.4375 8.43 -12.4375 7.75 C-15.0775 7.42 -17.7175 7.09 -20.4375 6.75 C-20.4375 6.42 -20.4375 6.09 -20.4375 5.75 C-19.47650391 5.60304688 -19.47650391 5.60304688 -18.49609375 5.453125 C-14.12247408 4.6970298 -10.44387835 4.0020356 -6.6875 1.5625 C-3.4375 -0.25 -3.4375 -0.25 0 0 Z " fill="#1E201F" transform="translate(206.4375,454.25)"/>
<path d="M0 0 C1.37780724 2.75561448 0.92023755 4.09771234 0 7 C-2.0625 8.8125 -2.0625 8.8125 -4 10 C-3.67 10.66 -3.34 11.32 -3 12 C-3.66 12 -4.32 12 -5 12 C-5 12.66 -5 13.32 -5 14 C-5.99 14.33 -6.98 14.66 -8 15 C-8.66 14.67 -9.32 14.34 -10 14 C-9.10517703 7.95994492 -4.18302702 4.06683182 0 0 Z M-3 9 C-2.34 9.66 -1.68 10.32 -1 11 C-1.66 11 -2.32 11 -3 11 C-3 10.34 -3 9.68 -3 9 Z " fill="#1A1C1B" transform="translate(98,199)"/>
<path d="M0 0 C3.37462715 0.54723683 5.08235 1.0549 8 3 C6.3811004 4.03048037 4.75467511 5.04914678 3.125 6.0625 C2.22007812 6.63097656 1.31515625 7.19945312 0.3828125 7.78515625 C-0.40351563 8.18605469 -1.18984375 8.58695313 -2 9 C-2.66 8.67 -3.32 8.34 -4 8 C-2.95833333 6.20963542 -1.91666667 4.41927083 -0.875 2.62890625 C0.07886962 1.16134961 0.07886962 1.16134961 0 0 Z " fill="#292B2A" transform="translate(141,234)"/>
<path d="M0 0 C-0.33 0.66 -0.66 1.32 -1 2 C-3.16467461 2.62669199 -5.35864524 3.15427374 -7.5625 3.625 C-8.76003906 3.88539063 -9.95757812 4.14578125 -11.19140625 4.4140625 C-12.11824219 4.60742188 -13.04507813 4.80078125 -14 5 C-13.6640625 3.08203125 -13.6640625 3.08203125 -13 1 C-8.41083524 -1.29458238 -4.94683566 -0.98936713 0 0 Z " fill="#222423" transform="translate(205,290)"/>
<path d="M0 0 C0.99 0.33 1.98 0.66 3 1 C1.41037341 5.03520597 -0.28232318 9.01811282 -2 13 C-3.0625 11.1875 -3.0625 11.1875 -4 9 C-3.67 8.01 -3.34 7.02 -3 6 C-2.855625 5.13375 -2.71125 4.2675 -2.5625 3.375 C-2.376875 2.59125 -2.19125 1.8075 -2 1 C-1.34 0.67 -0.68 0.34 0 0 Z " fill="#2A2C2B" transform="translate(93,273)"/>
<path d="M0 0 C3.875 1.875 3.875 1.875 5 3 C7.01964199 3.07244053 9.04167124 3.08377188 11.0625 3.0625 C12.16722656 3.05347656 13.27195313 3.04445313 14.41015625 3.03515625 C15.26480469 3.02355469 16.11945313 3.01195312 17 3 C17 3.66 17 4.32 17 5 C11.39 5 5.78 5 0 5 C0 3.35 0 1.7 0 0 Z M16 1 C17.98 1.99 17.98 1.99 20 3 C18.68 2.67 17.36 2.34 16 2 C16 1.67 16 1.34 16 1 Z " fill="#070908" transform="translate(153,265)"/>
<path d="M0 0 C0.66 0.66 1.32 1.32 2 2 C1.525625 2.556875 1.05125 3.11375 0.5625 3.6875 C-1.12395996 6.18346074 -1.58953107 8.0446237 -2 11 C-4.475 10.01 -4.475 10.01 -7 9 C-7 7.33333333 -7 5.66666667 -7 4 C-5.68 4 -4.36 4 -3 4 C-2.67 3.01 -2.34 2.02 -2 1 C-1.34 0.67 -0.68 0.34 0 0 Z " fill="#050807" transform="translate(309,291)"/>
<path d="M0 0 C-3.06975587 2.04650391 -5.69084152 2.99704565 -9.1875 4.125 C-10.27417969 4.47820312 -11.36085937 4.83140625 -12.48046875 5.1953125 C-13.31191406 5.46085937 -14.14335937 5.72640625 -15 6 C-15.33 4.68 -15.66 3.36 -16 2 C-11.25 0.875 -11.25 0.875 -9 2 C-8.67 1.34 -8.34 0.68 -8 0 C-4.71023192 -1.09658936 -3.28696233 -0.79953138 0 0 Z " fill="#282928" transform="translate(241,351)"/>
<path d="M0 0 C3.16115776 1.36983503 3.9927092 1.9890638 6 5 C4.68 5.33 3.36 5.66 2 6 C1.67 7.32 1.34 8.64 1 10 C0.34 9.67 -0.32 9.34 -1 9 C-1.09765625 2.84765625 -1.09765625 2.84765625 -1 1 C-0.67 0.67 -0.34 0.34 0 0 Z " fill="#030605" transform="translate(190,285)"/>
<path d="M0 0 C2.625 0.375 2.625 0.375 5 1 C4.4409112 4.24271506 3.5867822 5.93057424 1 8 C0.34 8 -0.32 8 -1 8 C-1.625 5.125 -1.625 5.125 -2 2 C-1.34 1.34 -0.68 0.68 0 0 Z " fill="#030604" transform="translate(101,324)"/>
<path d="M0 0 C1.65 0.33 3.3 0.66 5 1 C5 1.66 5 2.32 5 3 C6.65 3 8.3 3 10 3 C10 3.33 10 3.66 10 4 C3.65758005 5.15316726 -2.56688704 5.09507063 -9 5 C-9 4.67 -9 4.34 -9 4 C-8.28972656 3.95101563 -7.57945312 3.90203125 -6.84765625 3.8515625 C-5.46900391 3.73941406 -5.46900391 3.73941406 -4.0625 3.625 C-3.14597656 3.55539062 -2.22945312 3.48578125 -1.28515625 3.4140625 C-0.15400391 3.20910156 -0.15400391 3.20910156 1 3 C1.33 2.34 1.66 1.68 2 1 C1.34 0.67 0.68 0.34 0 0 Z " fill="#3E3F3E" transform="translate(223,371)"/>
<path d="M0 0 C0.33 0.66 0.66 1.32 1 2 C0.67 2.66 0.34 3.32 0 4 C1.32 4.66 2.64 5.32 4 6 C1.38058783 7.74627478 -0.03824877 8.38722388 -3 9 C-3.1875 5.625 -3.1875 5.625 -3 2 C-2.01 1.34 -1.02 0.68 0 0 Z " fill="#1A1C1B" transform="translate(310,293)"/>
<path d="M0 0 C0.66 0.66 1.32 1.32 2 2 C4.36509361 2.30059943 6.74441881 2.49515012 9.125 2.625 C11.04699219 2.73714844 11.04699219 2.73714844 13.0078125 2.8515625 C13.99523437 2.90054687 14.98265625 2.94953125 16 3 C16 3.33 16 3.66 16 4 C5.605 4.495 5.605 4.495 -5 5 C-2 1 -2 1 0 0 Z " fill="#030504" transform="translate(278,274)"/>
<path d="M0 0 C0.99 0.33 1.98 0.66 3 1 C2.34 3.97 1.68 6.94 1 10 C-0.32 9.67 -1.64 9.34 -3 9 C-2.67 7.35 -2.34 5.7 -2 4 C-1.01 3.67 -0.02 3.34 1 3 C0.67 2.01 0.34 1.02 0 0 Z " fill="#060807" transform="translate(313,289)"/>
<path d="M0 0 C0.99 0.33 1.98 0.66 3 1 C3 3.64 3 6.28 3 9 C2.01 9 1.02 9 0 9 C-0.33 8.01 -0.66 7.02 -1 6 C-0.34 6 0.32 6 1 6 C0.34 4.35 -0.32 2.7 -1 1 C-0.67 0.67 -0.34 0.34 0 0 Z " fill="#060907" transform="translate(115,186)"/>
<path d="M0 0 C2.97 0 5.94 0 9 0 C9.33 0.66 9.66 1.32 10 2 C9.01 2.99 8.02 3.98 7 5 C6.01 4.67 5.02 4.34 4 4 C4 3.34 4 2.68 4 2 C2.68 1.34 1.36 0.68 0 0 Z " fill="#040706" transform="translate(255,267)"/>
<path d="M0 0 C1.98 0 3.96 0 6 0 C5.67 1.65 5.34 3.3 5 5 C4.01 5.33 3.02 5.66 2 6 C0 3 0 3 0 0 Z " fill="#060707" transform="translate(212,153)"/>
<path d="M0 0 C0.99 0.33 1.98 0.66 3 1 C2.67 2.65 2.34 4.3 2 6 C1.34 5.67 0.68 5.34 0 5 C-1.66392045 4.32650839 -3.33032028 3.6590841 -5 3 C-2 1 -2 1 0 0 Z " fill="#242726" transform="translate(211,409)"/>
<path d="M0 0 C1.65 0 3.3 0 5 0 C4.67 1.32 4.34 2.64 4 4 C2.02 4.33 0.04 4.66 -2 5 C-2 4.01 -2 3.02 -2 2 C-1.34 2 -0.68 2 0 2 C0 1.34 0 0.68 0 0 Z " fill="#040706" transform="translate(319,225)"/>
<path d="M0 0 C0.99 0 1.98 0 3 0 C2.125 4.75 2.125 4.75 1 7 C0.01 7 -0.98 7 -2 7 C-2 5.68 -2 4.36 -2 3 C-1.34 3 -0.68 3 0 3 C0 2.01 0 1.02 0 0 Z " fill="#404242" transform="translate(223,158)"/>
<path d="M0 0 C3.96 0 7.92 0 12 0 C10.02 0.99 10.02 0.99 8 2 C7.01 2.66 6.02 3.32 5 4 C3.35 2.68 1.7 1.36 0 0 Z " fill="#030504" transform="translate(154,364)"/>
<path d="M0 0 C2.88575819 0.39803561 3.82189513 0.79009069 5.75 3.0625 C6.1625 3.701875 6.575 4.34125 7 5 C6.01 5 5.02 5 4 5 C3.67 5.66 3.34 6.32 3 7 C2.01 4.69 1.02 2.38 0 0 Z " fill="#2F3030" transform="translate(329,204)"/>
<path d="M0 0 C0.33 0.99 0.66 1.98 1 3 C-0.98 4.32 -2.96 5.64 -5 7 C-5.33 6.01 -5.66 5.02 -6 4 C-4.68 3.67 -3.36 3.34 -2 3 C-2 2.34 -2 1.68 -2 1 C-1.34 0.67 -0.68 0.34 0 0 Z " fill="#2D2F2E" transform="translate(289,354)"/>
<path d="M0 0 C0.86625 0.3403125 0.86625 0.3403125 1.75 0.6875 C-1.25 2.6875 -1.25 2.6875 -3.25 3.6875 C-3.58 4.6775 -3.91 5.6675 -4.25 6.6875 C-4.91 5.3675 -5.57 4.0475 -6.25 2.6875 C-2.80384615 -0.38942308 -2.80384615 -0.38942308 0 0 Z " fill="#333636" transform="translate(267.25,352.3125)"/>
<path d="M0 0 C0.99 0 1.98 0 3 0 C2.45276317 3.37462715 1.9451 5.08235 0 8 C-0.38063221 5.6739143 -0.71269945 3.33944736 -1 1 C-0.67 0.67 -0.34 0.34 0 0 Z " fill="#030605" transform="translate(323,201)"/>
<path d="M0 0 C-2.38580296 2.88807727 -4.29060747 3.61954948 -8 4 C-8.66 3.67 -9.32 3.34 -10 3 C-10 2.34 -10 1.68 -10 1 C-6.59437148 0.22157062 -3.49234244 -0.09978121 0 0 Z " fill="#383A39" transform="translate(202,154)"/>
<path d="M0 0 C0 3 0 3 0 3 Z M-2 3 C-1.25 4.75 -1.25 4.75 -1 7 C-2.9375 9.25 -2.9375 9.25 -5 11 C-4.45276317 7.62537285 -3.9451 5.91765 -2 3 Z " fill="#272827" transform="translate(87,213)"/>
<path d="M0 0 C-1 1.5625 -1 1.5625 -3 3 C-5.76614782 2.96726452 -8.26030547 2.49404328 -11 2 C-11 1.67 -11 1.34 -11 1 C-7.27569643 0.30710631 -3.78916254 -0.11144596 0 0 Z " fill="#434443" transform="translate(240,303)"/>
<path d="M0 0 C0.66 0 1.32 0 2 0 C2.33 2.97 2.66 5.94 3 9 C2.34 7.68 1.68 6.36 1 5 C0.34 4.67 -0.32 4.34 -1 4 C-0.67 2.68 -0.34 1.36 0 0 Z " fill="#1D1F1E" transform="translate(326,275)"/>
<path d="M0 0 C1.98 0.495 1.98 0.495 4 1 C4 1.99 4 2.98 4 4 C2.68 4.33 1.36 4.66 0 5 C-0.33 4.01 -0.66 3.02 -1 2 C-0.67 1.34 -0.34 0.68 0 0 Z " fill="#040605" transform="translate(132,257)"/>
<path d="M0 0 C1.5625 1.25 1.5625 1.25 3 3 C2.8125 5.125 2.8125 5.125 2 7 C1.01 7.495 1.01 7.495 0 8 C-0.79953138 4.71303767 -1.09658936 3.28976808 0 0 Z " fill="#222423" transform="translate(332,225)"/>
<path d="M0 0 C1.32 0.66 2.64 1.32 4 2 C0.535 3.485 0.535 3.485 -3 5 C-3.33 4.01 -3.66 3.02 -4 2 C-2.68 2 -1.36 2 0 2 C0 1.34 0 0.68 0 0 Z " fill="#040605" transform="translate(269,298)"/>
<path d="M0 0 C1.65 0 3.3 0 5 0 C4.25 1.9375 4.25 1.9375 3 4 C0.875 4.75 0.875 4.75 -1 5 C-1 2 -1 2 0 0 Z " fill="#040706" transform="translate(144,298)"/>
<path d="M0 0 C2.31 0.66 4.62 1.32 7 2 C3.91190305 3.76462683 2.76687864 4 -1 4 C-0.67 2.68 -0.34 1.36 0 0 Z " fill="#464646" transform="translate(190,217)"/>
</svg>
