<?xml version="1.0" encoding="utf-8"?>
<!-- Uploaded to: SVG Repo, www.svgrepo.com, Generator: SVG Repo Mixer Tools -->
<svg fill="#000000" width="800px" height="800px" viewBox="0 0 32 32" version="1.1" xmlns="http://www.w3.org/2000/svg">
<title>torproject</title>
<path d="M17.752 24.745c-0.049-0.91-0.237-1.762-0.544-2.555l0.019 0.056c-0.314-0.71-0.627-1.3-0.975-1.867l0.038 0.067c-0.147-0.566-0.232-1.216-0.232-1.885 0-0.247 0.012-0.491 0.034-0.732l-0.002 0.031c0.020 0.872 0.165 1.703 0.417 2.486l-0.017-0.062c0.286 0.453 0.574 0.986 0.827 1.538l0.035 0.086c0.345 0.824 0.603 1.782 0.731 2.78l0.006 0.056c0.004 0.113 0.006 0.246 0.006 0.38 0 1.198-0.162 2.358-0.464 3.46l0.021-0.091c-0.137 0.479-0.307 0.893-0.517 1.284l0.017-0.034c0.38-0.543 0.68-1.176 0.865-1.857l0.010-0.042c0.337-1.206 0.53-2.591 0.53-4.022 0-0.555-0.029-1.103-0.086-1.643l0.006 0.067c-0.143-0.901-0.343-1.697-0.605-2.464l0.030 0.102c-0.55-1.5-1.337-2.786-1.437-3.086-0.294-1.255-0.47-2.702-0.487-4.186l-0-0.012c0.043 1.404 0.241 2.742 0.578 4.023l-0.028-0.125c0.1 0.3 1 1.724 1.624 3.224 0.266 0.624 0.475 1.352 0.593 2.109l0.007 0.052c0.086 0.57 0.135 1.227 0.135 1.896 0 1.633-0.292 3.198-0.827 4.645l0.030-0.093c-0.119 0.392-0.268 0.731-0.45 1.049l0.013-0.024c0.444-0.489 0.787-1.078 0.991-1.729l0.009-0.033c0.411-1.52 0.647-3.266 0.647-5.067s-0.236-3.546-0.679-5.208l0.032 0.141c-0.525-1.599-1.762-2.999-2.062-3.961-0.11-0.544-0.172-1.17-0.172-1.81 0-0.414 0.026-0.823 0.077-1.223l-0.005 0.048-2.686-1.25c0.7 1.799 0.825 3.199 0.1 3.749-2.824 2.337-7.497 4.998-7.497 8.884-0.004 0.099-0.006 0.216-0.006 0.334 0 4.772 3.868 8.64 8.64 8.64 0.062 0 0.123-0.001 0.185-0.002l-0.009 0c-0.84-0.215-1.548-0.455-2.232-0.739l0.107 0.040c-0.647-0.255-1.194-0.638-1.634-1.121l-0.003-0.003-0.162-0.175c-1.125-1.262-1.986-2.785-2.478-4.466l-0.021-0.083c-0.121-0.334-0.191-0.719-0.191-1.121 0-0.276 0.033-0.545 0.096-0.802l-0.005 0.023c0.663-2.181 2.133-3.944 4.054-4.976l0.045-0.022c0.49-0.262 0.898-0.515 1.29-0.789l-0.041 0.027c0.587-0.362 0.962-1.912 1.349-3.161-0.2 0.962-0.425 2.824-1.325 3.524-0.362 0.275-0.762 0.537-1.162 0.8-1.877 1.016-3.29 2.688-3.945 4.702l-0.016 0.058c-0.040 0.2-0.063 0.429-0.063 0.664 0 0.379 0.060 0.743 0.17 1.085l-0.007-0.025c0.516 1.698 1.353 3.165 2.447 4.398l-0.010-0.012s0.162 0.162 0.162 0.2c0.58 0.757 1.43 1.283 2.403 1.434l0.021 0.003c-0.362-0.2-0.662-0.437-0.925-0.6-1.49-0.97-2.469-2.617-2.499-4.494l-0-0.004c-0-0.006-0-0.013-0-0.021 0-1.865 1.105-3.472 2.695-4.203l0.029-0.012c1.072-0.646 1.841-1.702 2.094-2.945l0.005-0.029c-0.099 1.344-0.866 2.489-1.967 3.114l-0.019 0.010c-1.456 0.789-2.465 2.242-2.623 3.941l-0.001 0.020c0.277 1.709 1.131 3.181 2.353 4.241l0.009 0.007c0.56 0.422 1.228 0.735 1.953 0.894l0.034 0.006c-0.225-0.185-0.422-0.39-0.593-0.616l-0.007-0.009c-0.215-0.358-0.406-0.771-0.55-1.205l-0.013-0.044c-0.175-0.364-0.295-0.788-0.336-1.235l-0.001-0.015c-0.010-0.113-0.016-0.245-0.016-0.378 0-0.967 0.305-1.864 0.825-2.597l-0.009 0.014c0.52-0.434 0.911-1.007 1.118-1.662l0.007-0.025c-0.113 0.735-0.435 1.38-0.902 1.889l0.002-0.003c-0.463 0.617-0.742 1.395-0.742 2.239 0 0.198 0.015 0.392 0.045 0.581l-0.003-0.021c0.082 0.438 0.208 0.828 0.375 1.194l-0.013-0.032c0.166 0.477 0.382 0.89 0.648 1.265l-0.010-0.015c0.225 0.262 0.325 0.462 0.687 0.6 0.368-0.866 0.591-1.872 0.612-2.928l0-0.008c0.032-0.33 0.051-0.712 0.051-1.1s-0.018-0.77-0.055-1.148l0.004 0.048c-0.204-0.778-0.379-1.729-0.491-2.699l-0.009-0.099c0.15 0.737 0.537 1.724 0.762 2.761 0.106 0.457 0.167 0.983 0.167 1.522 0 0.225-0.011 0.448-0.031 0.668l0.002-0.028c-0.014 0.667-0.086 1.309-0.212 1.931l0.012-0.069c-0.088 0.45-0.286 0.843-0.565 1.165l0.003-0.003c0.733-0.62 1.239-1.49 1.384-2.477l0.003-0.022c0.255-0.834 0.401-1.793 0.401-2.786 0-0.057-0-0.115-0.001-0.172l0 0.009zM24.5 18.76c-1.697-2.276-3.839-4.123-6.308-5.436l-0.102-0.049c-0.637-0.375-0.762-1.762-0.662-2.362l-0.637-0.3c-0.038 0.291-0.059 0.629-0.059 0.971 0 0.716 0.095 1.411 0.272 2.071l-0.013-0.056c0.3 0.937 1.25 1.999 1.899 3.499 0.36 1.025 0.673 2.253 0.882 3.517l0.018 0.132c0.114 0.726 0.178 1.564 0.178 2.417 0 1.871-0.312 3.67-0.888 5.346l0.035-0.116c-0.369 0.977-0.985 1.791-1.774 2.389l-0.013 0.010-0.3 0.2c5.198 0.162 11.033-5.785 7.472-12.233zM23.475 2.429c-2.301 0.675-4.22 2.047-5.565 3.87l-0.020 0.029c1.095-2.024 2.339-3.77 3.769-5.345l-0.020 0.022c-2.079 1.399-3.765 3.228-4.958 5.369l-0.040 0.079 0.8-3.186c-1.162 1.921-1.997 4.175-2.361 6.584l-0.013 0.101 1.399 0.6c2.045-3.081 4.358-5.748 6.97-8.087l0.039-0.035z"></path>
</svg>