<?xml version="1.0" encoding="UTF-8" standalone="no"?>
<svg
   version="1.1"
   width="1218.1078"
   height="1222.5864"
   id="svg97"
   xmlns="http://www.w3.org/2000/svg"
   xmlns:svg="http://www.w3.org/2000/svg">
  <defs
     id="defs97">
    <linearGradient
       id="swatch110">
      <stop
         style="stop-color:#000000;stop-opacity:1;"
         offset="0"
         id="stop110" />
    </linearGradient>
    <linearGradient
       id="linearGradient108">
      <stop
         style="stop-color:#000000;stop-opacity:1;"
         offset="0.11589404"
         id="stop108" />
      <stop
         style="stop-color:#000000;stop-opacity:0;"
         offset="1"
         id="stop109" />
    </linearGradient>
    <linearGradient
       id="swatch97">
      <stop
         style="stop-color:#ffffff;stop-opacity:1;"
         offset="0"
         id="stop97" />
    </linearGradient>
  </defs>
  <rect
     style="opacity:1;mix-blend-mode:normal;fill:#ffffff;fill-opacity:1;fill-rule:evenodd;stroke:#000000;stroke-width:49.1452;stroke-linecap:butt;stroke-miterlimit:4.6;stroke-dasharray:none;stroke-opacity:1;paint-order:stroke fill markers"
     id="rect97"
     width="1168.9626"
     height="1173.4413"
     x="24.572601"
     y="24.572571"
     ry="136.9776"
     rx="129.88579" />
  <path
     d="m 634.98141,148.58494 c 1.2215,-0.008 2.443,-0.0218 3.6644,-0.0415 1.7976,-0.0289 3.5946,-0.0397 5.3925,-0.0466 0.8079,-0.0178 0.8079,-0.0178 1.6321,-0.0358 4.7647,0.0182 8.3289,1.5076 11.9498,4.45715 1.0564,1.2655 1.0564,1.2655 1.0564,2.61537 0.4648,0 0.9297,0 1.4086,0 0.4765,0.84003 0.9443,1.68461 1.4085,2.531 0.2615,0.46982 0.5229,0.93964 0.7923,1.42369 0.6162,1.44478 0.6162,1.44478 0.6162,4.14452 0.4648,0 0.9297,0 1.4086,0 0.4939,7.3991 0.4866,13.27932 -4.2256,19.57308 -1.3641,1.44845 -2.4888,2.31545 -4.2256,3.37467 -0.4649,0 -0.9297,0 -1.4086,0 0,0.44545 0,0.89091 0,1.34987 -4.4276,1.97894 -8.3151,3.02305 -13.205,3.25603 -1.6093,0.0247 -1.6093,0.0247 -2.9931,0.79357 -1.8381,0.14469 -3.6635,0.25429 -5.5049,0.33747 -0.5434,0.0274 -1.0869,0.0548 -1.6468,0.083 -2.33,0.11745 -4.6603,0.22793 -6.9906,0.33878 -1.6987,0.0818 -3.3972,0.16734 -5.0958,0.2531 -0.5311,0.024 -1.0622,0.0479 -1.6094,0.0725 -2.4618,-0.0769 -2.4618,-0.0769 -4.5061,0.9399 -1.1609,0.13783 -2.3271,0.23461 -3.4939,0.31374 -0.7253,0.0527 -1.4507,0.10527 -2.1981,0.1595 -1.5185,0.10445 -3.0371,0.20817 -4.5557,0.31111 -4.2605,0.31039 -8.38419,0.81636 -12.57776,1.59786 -3.30994,0.57622 -6.65372,0.84045 -10.00142,1.13483 -3.10402,0.29928 -5.76696,0.87954 -8.72494,1.88243 -1.65062,0.23201 -1.65062,0.23201 -3.1692,0.33747 -1.94129,0.17364 -3.4123,0.41512 -5.28201,1.0124 -1.86971,0.59728 -3.34072,0.83876 -5.282,1.0124 -2.64517,0.2374 -4.87941,0.84886 -7.39481,1.68734 -0.82795,0.11136 -1.65591,0.22272 -2.50895,0.33746 -2.3551,0.23595 -2.3551,0.23595 -4.18159,1.0124 -1.76066,0.67494 -1.76066,0.67494 -4.26962,1.0124 -2.30293,0.19545 -2.30293,0.19545 -3.75139,0.98209 -1.71028,0.81137 -3.28825,1.15909 -5.15649,1.52782 -0.70267,0.14182 -1.40534,0.28364 -2.12931,0.42975 -0.7299,0.14356 -1.45981,0.28711 -2.21184,0.43501 -6.28579,1.23339 -6.28579,1.23339 -12.41271,3.03721 -2.29372,0.68293 -4.59108,1.35376 -6.88861,2.0248 -2.17467,0.64748 -4.3325,1.33388 -6.49246,2.0248 -1.2899,0.38358 -2.58115,0.76298 -3.87348,1.13895 -4.4936,1.32391 -8.98366,2.65834 -13.46911,4.00742 -1.02745,0.30498 -1.02745,0.30498 -2.07566,0.61611 -0.64593,0.19516 -1.29186,0.39032 -1.95737,0.59139 -0.57977,0.17368 -1.15954,0.34742 -1.75688,0.52632 -1.68862,0.5428 -1.68862,0.5428 -3.62966,1.894 -2.24485,0.084 -2.24485,0.084 -4.22561,0 0,0.4454 0,0.8909 0,1.3498 -0.68905,0.2123 -1.37811,0.4246 -2.08804,0.6433 -4.46208,1.3899 -8.84807,2.7848 -13.10322,4.6929 -2.27171,0.9801 -4.58785,1.8461 -6.90512,2.7209 -8.35537,3.1784 -16.42136,6.9269 -24.53106,10.6355 -0.58613,0.2673 -1.17225,0.5346 -1.77615,0.81 -1.34306,0.626 -2.66651,1.2904 -3.98454,1.9635 -1.84045,0.8068 -1.84045,0.8068 -4.65752,0.8068 0,0.4454 0,0.8909 0,1.3498 -0.8048,0.3798 -0.8048,0.3798 -1.62587,0.7672 -0.72718,0.3454 -1.45436,0.6909 -2.20358,1.0467 -1.06627,0.5051 -1.06627,0.5051 -2.15407,1.0203 -5.99794,2.9542 -11.7816,6.248 -17.56541,9.5677 -0.75215,0.4281 -1.5043,0.8562 -2.27925,1.2972 -4.14916,2.3804 -8.16843,4.8611 -12.10545,7.5521 -1.78128,1.2089 -3.61004,2.327 -5.46684,3.4261 -2.90446,1.7451 -5.6407,3.6039 -8.32191,5.6499 -1.09766,0.7198 -1.09766,0.7198 -2.5062,0.7198 0,0.4454 0,0.8909 0,1.3499 -0.69722,0.2227 -1.39445,0.4454 -2.1128,0.6749 -0.65365,0.6473 -0.65365,0.6473 -1.3205,1.3077 -1.6039,1.4919 -2.91713,2.0708 -5.01791,2.7419 0,0.4455 0,0.8909 0,1.3499 -1.18845,0.9992 -1.18845,0.9992 -2.81706,2.1513 -2.80419,2.0209 -5.42602,4.1556 -8.0083,6.4303 -1.14718,0.8674 -1.14718,0.8674 -2.55571,0.8674 0,0.4455 0,0.891 0,1.3499 -0.9369,0.885 -0.9369,0.885 -2.29163,1.9484 -3.73989,3.0485 -7.18783,6.3597 -10.64946,9.6908 -1.11285,1.0701 -2.22948,2.1366 -3.34647,3.2028 -0.71046,0.6813 -1.42069,1.3628 -2.13069,2.0445 -0.95859,0.9198 -0.95859,0.9198 -1.93656,1.8582 -1.49683,1.3786 -1.49683,1.3786 -2.18175,2.8532 -0.46481,0 -0.92963,0 -1.40853,0 -0.23241,0.8909 -0.46482,1.7818 -0.70427,2.6997 -0.46482,0 -0.92963,0 -1.40853,0 -0.23241,0.6682 -0.46482,1.3364 -0.70427,2.0248 -0.46482,0 -0.92963,0 -1.40854,0 -0.0653,0.5429 -0.0653,0.5429 -0.13205,1.0968 -0.6646,1.8618 -1.74385,3.0521 -3.07842,4.5242 -6.08288,6.7616 -11.22189,14.6197 -15.10048,22.7263 -0.46481,0 -0.92963,0 -1.40853,0 -0.23241,1.3363 -0.46482,2.6727 -0.70427,4.0496 -0.46481,0 -0.92963,0 -1.40853,0 -0.23241,1.3363 -0.46482,2.6727 -0.70427,4.0496 -0.46482,0 -0.92963,0 -1.40853,0 -0.23241,1.5591 -0.46482,3.1182 -0.70427,4.7245 -0.46482,0 -0.92963,0 -1.40854,0 -0.0872,0.8213 -0.1743,1.6426 -0.2641,2.4888 -0.24495,2.3084 -0.9254,4.1448 -1.8487,6.2853 -1.88122,5.4169 -2.34827,10.6527 -2.42092,16.325 -0.0156,0.6168 -0.0311,1.2336 -0.0471,1.8691 0.0222,6.9344 2.45038,11.95665 7.37039,16.96305 1.77082,1.5898 3.60962,2.7599 5.66165,3.989 0,0.4455 0,0.8909 0,1.3499 0.53744,0.083 1.07489,0.167 1.62862,0.2531 1.89272,0.4218 1.89272,0.4218 4.00552,1.7717 3.35405,0.3904 3.35405,0.3904 6.20636,-1.0124 0.27598,-0.3341 0.55197,-0.6682 0.83631,-1.0124 0.46482,0 0.92964,0 1.40854,0 0.23241,-0.6682 0.46481,-1.3364 0.70427,-2.0248 1.51582,-1.1891 1.51582,-1.1891 3.47731,-2.4889 3.41697,-2.3012 6.6472,-4.7376 9.83774,-7.3188 1.47456,-0.9913 1.47456,-0.9913 3.58736,-0.9913 0,-0.4454 0,-0.8909 0,-1.34975 0.92963,-0.2228 1.85927,-0.4455 2.81707,-0.675 0,-0.4454 0,-0.8909 0,-1.3498 1.44705,-0.9993 1.44705,-0.9993 3.4333,-2.1514 3.41042,-2.01 6.662,-4.1512 9.88175,-6.4303 1.47456,-0.8674 1.47456,-0.8674 3.58736,-0.8674 0,-0.4455 0,-0.8909 0,-1.3499 3.72848,-2.6997 3.72848,-2.6997 6.33841,-2.6997 0,-0.4455 0,-0.8909 0,-1.3499 1.62586,-1.0467 1.62586,-1.0467 3.82945,-2.2357 0.76804,-0.4176 1.53607,-0.8352 2.32739,-1.2655 0.75714,-0.4037 1.51428,-0.8074 2.29437,-1.2233 0.62641,-0.3341 1.25282,-0.6682 1.89822,-1.0124 1.0463,-0.556 2.09422,-1.1092 3.14444,-1.6584 1.16755,-0.6342 2.29186,-1.3403 3.40854,-2.0538 0.69723,0 1.39445,0 2.11281,0 0,-0.4454 0,-0.8909 0,-1.3498 1.16204,-0.2228 2.32408,-0.4455 3.52133,-0.675 0,-0.4454 0,-0.8909 0,-1.3498 0.41852,-0.1967 0.83703,-0.3933 1.26823,-0.5959 4.02798,-1.9091 7.9658,-3.925 11.86801,-6.0612 1.65338,-0.7672 1.65338,-0.7672 3.76618,-0.7672 0,-0.4455 0,-0.8909 0,-1.3499 1.39445,-0.2227 2.7889,-0.4454 4.2256,-0.6749 0,-0.4455 0,-0.8909 0,-1.3499 0.71538,-0.3428 1.43076,-0.6856 2.16782,-1.0387 0.46556,-0.2232 0.93111,-0.4464 1.41078,-0.6763 1.02299,-0.49 2.04627,-0.9795 3.06981,-1.4685 2.39855,-1.1467 4.79396,-2.2975 7.17558,-3.4762 0.7399,-0.3636 1.4798,-0.7273 2.24211,-1.102 0.65819,-0.3271 1.31637,-0.6543 1.99451,-0.9913 1.65888,-0.6961 1.65888,-0.6961 3.77168,-0.6961 0,-0.4454 0,-0.8909 0,-1.3498 1.39445,-0.2227 2.7889,-0.4455 4.2256,-0.675 0,-0.4454 0,-0.8909 0,-1.3498 0.48752,-0.1888 0.97502,-0.3776 1.47731,-0.5721 5.10285,-2.0038 10.09988,-4.174 15.08673,-6.4251 2.43323,-1.094 4.87681,-2.1567 7.33978,-3.1875 1.05311,-0.4462 2.09958,-0.9069 3.14169,-1.3762 0.56014,-0.2497 1.12029,-0.4994 1.6974,-0.7567 0.4984,-0.2262 0.99681,-0.4524 1.51032,-0.6854 1.4388,-0.4957 1.4388,-0.4957 4.25587,-0.4957 0,-0.4455 0,-0.8909 0,-1.3499 0.63186,-0.2312 1.26372,-0.4624 1.91473,-0.7006 2.36896,-0.8677 4.73645,-1.739 7.10353,-2.6114 1.02002,-0.3754 2.04043,-0.7498 3.06123,-1.1232 6.58148,-2.3573 6.58148,-2.3573 12.95501,-5.1747 2.47704,-1.2111 4.88663,-2.0395 7.53786,-2.8342 3.28712,-1.0071 6.47128,-2.0954 9.63966,-3.4168 3.74935,-1.5469 7.55079,-2.7137 11.4538,-3.838 2.72084,-0.7907 5.34258,-1.6746 7.95757,-2.7426 2.96127,-1.1929 5.60478,-1.629 8.80334,-1.8561 0,-0.4454 0,-0.8909 0,-1.3499 1.1861,-0.3301 1.1861,-0.3301 2.39616,-0.667 7.28094,-2.0316 7.28094,-2.0316 14.4925,-4.2763 2.15961,-0.6926 4.3428,-1.3053 6.52547,-1.9273 2.248,-0.6417 4.49337,-1.2911 6.73731,-1.9457 0.74534,-0.2166 1.49068,-0.4333 2.25861,-0.6565 2.04633,-0.6075 2.04633,-0.6075 3.77993,-1.3076 2.44502,-0.9212 4.95192,-1.6028 7.47459,-2.2964 3.75633,-1.0419 7.49677,-2.114 11.22426,-3.2481 3.23441,-0.9636 6.43768,-1.6961 9.76621,-2.2858 2.78335,-0.5174 5.46929,-1.3334 8.17061,-2.1487 3.4394,-1.0226 6.702,-1.7179 10.2779,-2.1883 0.5955,-0.2366 1.1911,-0.4733 1.8047,-0.7171 2.0626,-0.7603 3.7512,-0.7304 5.9422,-0.6328 0,-0.4454 0,-0.8909 0,-1.3498 0.4612,-0.095 0.9224,-0.1904 1.3975,-0.2884 2.1167,-0.4373 4.2331,-0.8759 6.3495,-1.3146 1.088,-0.2245 1.088,-0.2245 2.198,-0.4535 3.1222,-0.6479 6.2373,-1.2999 9.3316,-2.0617 2.2759,-0.54 4.5088,-0.9467 6.8253,-1.2813 2.3591,-0.357 4.4874,-0.7643 6.7786,-1.4342 2.9395,-0.7442 5.6512,-0.7087 8.6713,-0.5906 0,-0.4455 0,-0.8909 0,-1.3499 0.6527,-0.09 1.3055,-0.1792 1.978,-0.2715 1.2651,-0.1788 1.2651,-0.1788 2.5557,-0.3612 0.8416,-0.1175 1.6832,-0.2349 2.5502,-0.356 1.9867,-0.1518 1.9867,-0.1518 2.7758,-1.0361 2.4089,-0.324 4.8177,-0.5889 7.2353,-0.8436 2.5855,-0.078 2.5855,-0.078 4.7373,-1.1812 1.7465,-0.2397 3.4851,-0.4468 5.238,-0.6327 3.8829,-0.4347 7.6808,-0.9838 11.5048,-1.7744 1.5944,-0.2975 3.1652,-0.4784 4.7813,-0.6301 2.1245,-0.1997 4.13161,-0.5321 6.20641,-1.0124 6.64452,-1.4762 13.37192,-1.4429 20.15972,-1.3499 0,-0.4454 0,-0.8909 0,-1.3498 0.5686,-0.037 1.1373,-0.075 1.7232,-0.1132 2.5656,-0.1702 5.131,-0.3448 7.6963,-0.5196 0.8952,-0.059 1.7903,-0.1174 2.7125,-0.1779 1.2801,-0.088 1.2801,-0.088 2.586,-0.178 0.7893,-0.053 1.5786,-0.106 2.3917,-0.1607 1.8806,-0.091 1.8806,-0.091 3.314,-0.8754 5.8032,-0.8457 11.7232,-0.8918 17.5792,-1.0836 0.6899,-0.025 1.3799,-0.051 2.0908,-0.077 0.619,-0.02 1.238,-0.041 1.8758,-0.062 1.6557,-0.078 1.6557,-0.078 3.0664,-0.4639 3.5607,-0.8348 7.3884,-0.6174 11.0413,-0.7186 0.4869,-0.014 0.9737,-0.028 1.4753,-0.043 18.2523,-0.5145 36.5262,-0.4482 54.7781,0.043 0.5163,0.013 1.0326,0.026 1.5646,0.04 1.4373,0.038 2.8745,0.082 4.3116,0.1261 1.2113,0.037 1.2113,0.037 2.447,0.075 1.8887,0.1386 1.8887,0.1386 3.2972,0.8135 1.4726,0.1427 2.9491,0.2491 4.4264,0.3375 0.882,0.056 1.764,0.1114 2.6727,0.1687 1.4065,0.085 2.813,0.1693 4.2195,0.2531 1.3562,0.082 2.7121,0.1674 4.068,0.2531 0.8135,0.049 1.627,0.098 2.4651,0.1477 1.8678,0.1898 1.8678,0.1898 2.5721,0.8647 1.0661,0.1374 2.1379,0.2344 3.2104,0.3138 0.665,0.053 1.33,0.1052 2.0152,0.1595 1.3919,0.1045 2.7839,0.2082 4.176,0.3111 3.9325,0.3125 7.7238,0.8121 11.5824,1.6038 1.9592,0.3932 3.9263,0.6507 5.9102,0.9021 4.3983,0.6263 8.6054,1.6807 12.8803,2.821 2.6717,0.687 5.3436,1.2081 8.0606,1.6953 1.9554,0.391 3.8051,1.0126 5.6892,1.6425 1.1697,0.2437 2.3425,0.4756 3.5213,0.6749 0,0.4455 0,0.891 0,1.3499 0.9151,0.056 1.8302,0.1114 2.7731,0.1687 3.1117,0.3267 5.5122,1.2064 8.3136,2.502 2.0859,0.9235 4.2272,1.5685 6.4127,2.2384 2.2109,0.7152 4.316,1.6032 6.4457,2.5152 0,0.4454 0,0.8909 0,1.3498 1.3944,0.2228 2.7889,0.4455 4.2256,0.675 0,0.4454 0,0.8909 0,1.3498 0.5038,0.071 1.0077,0.141 1.5268,0.2136 2.214,0.5122 3.7919,1.3151 5.736,2.444 0.9328,0.5312 0.9328,0.5312 1.8844,1.073 0.7013,0.492 0.7013,0.492 1.4168,0.994 0,0.4454 0,0.8909 0,1.3499 0.4004,0.066 0.8007,0.1322 1.2132,0.2003 4.6443,1.3742 10.0314,6.1554 12.388,10.1346 0.1598,0.3758 0.3195,0.7517 0.4842,1.1389 0.4648,0 0.9296,0 1.4085,0 2.8171,3.0174 2.8171,3.0174 2.8171,4.7246 0.4648,0 0.9296,0 1.4085,0 0.2324,1.1136 0.4648,2.2272 0.7043,3.3746 0.4648,0 0.9296,0 1.4085,0 1.937,3.4567 3.3449,6.7491 4.4291,10.5327 0.4607,1.6264 0.4607,1.6264 1.2246,3.1267 0.8081,2.2002 0.867,3.9785 0.8718,6.3092 0,0.8509 0.01,1.7018 0.01,2.5784 -0.01,0.884 -0.011,1.768 -0.016,2.6787 0.01,0.8787 0.011,1.7575 0.016,2.6628 0,0.8526 -0.01,1.7053 -0.01,2.5837 0,1.1607 0,1.1607 -0.01,2.3448 -0.3407,4.2613 -1.9645,8.1306 -3.6156,12.0661 -0.1716,0.422 -0.3431,0.844 -0.5199,1.2787 -1.2516,3.0019 -2.7723,5.7301 -4.498,8.5079 -0.4648,0 -0.9296,0 -1.4085,0 -0.148,0.4663 -0.296,0.9327 -0.4484,1.4131 -1.2573,2.5685 -3.0188,4.3159 -5.0537,6.3486 -0.5509,0.5625 -0.5509,0.5625 -1.1128,1.1363 -1.0733,1.0916 -2.1573,2.1723 -3.2448,3.2508 -0.5801,0.582 -1.1602,1.1641 -1.758,1.7638 -1.9441,1.7759 -3.9917,3.2638 -6.165,4.7746 -2.802,1.7759 -2.802,1.7759 -4.7538,4.2605 -1.8047,0.4219 -1.8047,0.4219 -3.5214,0.675 0,0.4454 0,0.8909 0,1.3498 -1.3944,0.3341 -1.3944,0.3341 -2.8171,0.675 0,0.4454 0,0.8909 0,1.3498 -0.7844,0.362 -1.5687,0.7239 -2.3769,1.0968 -2.2809,1.0911 -4.4684,2.2743 -6.6465,3.5434 -9.0321,5.2568 -18.4064,9.97965 -28.322,13.50125 -3.6523,1.3201 -7.1783,2.9019 -10.7208,4.4688 -2.2267,0.9132 -4.503,1.5713 -6.8226,2.2357 -3.5452,1.0174 -6.9842,2.1805 -10.4319,3.4591 -4.5344,1.6759 -9.1106,3.07 -13.789,4.3289 -2.576,0.6951 -5.0451,1.4773 -7.5151,2.4626 -3.2316,0.9529 -6.4675,1.6886 -9.78,2.3201 -1.5204,0.3328 -1.5204,0.3328 -2.9216,1.0915 -2.0819,0.9599 -4.0428,0.7217 -6.3136,0.638 0,0.4455 0,0.8909 0,1.3499 -2.8023,0.6476 -5.6047,1.2941 -8.4072,1.9404 -1.18,0.2728 -1.18,0.2728 -2.3838,0.551 -3.9304,0.9058 -7.863,1.7909 -11.8114,2.6213 -1.8204,0.3887 -3.6285,0.8182 -5.4363,1.257 -2.2077,0.535 -4.4154,1.0681 -6.6273,1.5871 -4.1877,0.9723 -4.1877,0.9723 -8.2943,2.2094 -2.8848,0.8639 -5.8095,1.243 -8.7952,1.6688 -1.7201,0.1396 -1.7201,0.1396 -2.4731,0.9887 -1.4073,0.2738 -2.8222,0.5111 -4.2394,0.7329 -0.8811,0.141 -1.7621,0.2819 -2.6699,0.4272 -1.8485,0.2912 -3.6973,0.5805 -5.5461,0.87 -4.9281,0.7891 -9.7538,1.6968 -14.5773,2.9517 -2.4442,0.5542 -4.865,0.7406 -7.3637,0.9265 -1.6415,0.1268 -1.6415,0.1268 -3.59,0.8411 -2.693,0.8427 -5.263,0.957 -8.0771,1.16 -1.9052,0.1354 -1.9052,0.1354 -3.9395,0.8647 -2.659,0.8495 -5.1967,0.9584 -7.9808,1.1601 -2.3691,0.2393 -4.5283,0.8921 -6.8088,1.5397 -1.547,0.1912 -3.0884,0.3317 -4.6438,0.4429 -2.2785,0.312 -4.4139,0.9708 -6.6245,1.5819 -6.2846,1.2994 -12.58942,2.2631 -18.97793,2.9383 -2.5667,0.2597 -2.5667,0.2597 -4.9672,1.1113 -1.1043,0.1402 -2.2132,0.2478 -3.3233,0.3374 -0.6563,0.055 -1.3127,0.1114 -1.989,0.1688 -1.3883,0.1125 -2.7767,0.225 -4.165,0.3374 -0.6564,0.055 -1.3128,0.1114 -1.989,0.1688 -0.6033,0.049 -1.2066,0.097 -1.8281,0.1476 -1.5306,0.1151 -1.5306,0.1151 -2.9037,0.8648 -0.9583,0.1386 -1.9214,0.2469 -2.8859,0.3374 -0.5642,0.055 -1.1284,0.1114 -1.7098,0.1688 -1.1939,0.1128 -2.3878,0.2252 -3.5818,0.3374 -2.8339,0.031 -2.8339,0.031 -5.2036,1.1812 -1.0889,0.1449 -2.1837,0.2502 -3.2793,0.3374 -0.6618,0.055 -1.3236,0.1114 -2.0055,0.1688 -1.4067,0.1125 -2.8134,0.225 -4.2201,0.3374 -0.6618,0.055 -1.3236,0.1114 -2.0055,0.1688 -0.6114,0.049 -1.2229,0.097 -1.8528,0.1477 -1.4211,0.049 -1.4211,0.049 -2.1307,0.8647 -1.0291,0.1446 -2.0643,0.25 -3.1004,0.3374 -0.6269,0.055 -1.2538,0.1114 -1.8996,0.1688 -0.6596,0.055 -1.3191,0.1113 -1.9987,0.1687 -1.2978,0.11 -2.5954,0.2224 -3.8927,0.3375 -0.5782,0.049 -1.1565,0.097 -1.7522,0.1477 -1.4848,0.12 -1.4848,0.12 -2.8503,0.8647 -1.2586,0.1414 -2.5216,0.2484 -3.7854,0.3374 -0.7517,0.055 -1.5034,0.1114 -2.2779,0.1688 -1.5919,0.1125 -3.1839,0.225 -4.7758,0.3374 -0.7517,0.055 -1.5034,0.1114 -2.2779,0.1688 -0.6917,0.049 -1.3835,0.097 -2.0963,0.1477 -1.6963,0.098 -1.6963,0.098 -3.0976,0.8647 -1.0401,0.1327 -2.0849,0.2322 -3.1307,0.3138 -0.636,0.052 -1.2719,0.1035 -1.9271,0.1568 -1.0261,0.08 -1.0261,0.08 -2.0729,0.1621 -4.5662,0.3733 -9.1055,0.7822 -13.6452,1.3921 -6.63314,0.8453 -13.31234,1.1781 -19.98909,1.5542 -0.88879,0.052 -1.77757,0.1035 -2.69328,0.1569 -0.80236,0.044 -1.60472,0.089 -2.43141,0.1346 -2.0524,0.1107 -2.0524,0.1107 -4.11332,0.854 -1.86069,0.1418 -3.71007,0.2527 -5.57361,0.3375 -1.11326,0.056 -2.22652,0.1125 -3.33977,0.1687 -1.75582,0.085 -3.51168,0.1694 -5.26756,0.2531 -1.69411,0.082 -3.38798,0.1673 -5.08187,0.2531 -0.79337,0.036 -0.79337,0.036 -1.60276,0.072 -2.45221,-0.075 -2.45221,-0.075 -4.48805,0.9399 -0.98579,0.099 -1.97642,0.1535 -2.96683,0.1899 -0.94485,0.037 -0.94485,0.037 -1.90879,0.075 -1.02776,0.036 -1.02776,0.036 -2.07628,0.072 -0.69909,0.028 -1.39819,0.055 -2.11848,0.083 -2.24376,0.088 -4.48766,0.1715 -6.73162,0.2544 -2.94837,0.109 -5.89651,0.2219 -8.84461,0.3374 -1.02562,0.036 -1.02562,0.036 -2.07196,0.073 -0.63211,0.025 -1.26423,0.049 -1.9155,0.075 -0.55776,0.02 -1.11551,0.041 -1.69017,0.062 -1.42415,0.054 -1.42415,0.054 -2.77633,0.8028 -1.96776,0.1546 -3.92143,0.2716 -5.89273,0.3585 -0.89289,0.042 -0.89289,0.042 -1.80381,0.085 -7.22076,0.3243 -14.44622,0.4637 -21.67292,0.6042 -1.77379,0.035 -3.54749,0.074 -5.3212,0.1123 -0.52611,0.01 -1.05221,0.018 -1.59426,0.028 -2.5356,0.057 -5.0124,0.1971 -7.52872,0.5058 -4.25146,0.4837 -8.50215,0.4277 -12.77808,0.4208 -1.3315,7e-4 -1.3315,7e-4 -2.68989,0 -1.86745,5e-4 -3.73484,-4e-4 -5.60228,-0.01 -2.38446,-0.01 -4.76886,0 -7.15331,0 -2.29033,0 -4.58066,6e-4 -6.87099,-7e-4 -0.8518,0 -1.7036,0 -2.5812,0.01 -0.79703,0 -1.59405,-0.01 -2.41521,-0.01 -0.69716,-5e-4 -1.39431,0 -2.11258,0 -2.12946,-0.091 -4.14434,-0.4066 -6.24183,-0.7607 -1.79895,-0.09 -3.58402,-0.1554 -5.38379,-0.1898 -0.76912,-0.019 -0.76912,-0.019 -1.55378,-0.038 -1.63425,-0.039 -3.26856,-0.075 -4.90292,-0.11 -6.50697,-0.1428 -13.00828,-0.3111 -19.50766,-0.6538 -0.50968,-0.025 -1.01938,-0.051 -1.54451,-0.076 -3.56068,-0.2014 -3.56068,-0.2014 -5.13777,-0.9571 -1.42121,-0.1424 -2.84641,-0.249 -4.27238,-0.3375 -0.85019,-0.055 -1.70039,-0.1113 -2.57635,-0.1687 -1.80467,-0.1126 -3.60936,-0.2251 -5.41405,-0.3375 -0.84929,-0.055 -1.69858,-0.1113 -2.57361,-0.1687 -0.78397,-0.049 -1.56796,-0.097 -2.3757,-0.1477 -1.80313,-0.1898 -1.80313,-0.1898 -2.5074,-0.8647 -1.03741,-0.1446 -2.08084,-0.2501 -3.12519,-0.3375 -0.63004,-0.055 -1.26008,-0.1113 -1.90922,-0.1687 -0.66272,-0.055 -1.32545,-0.1114 -2.00826,-0.1687 -1.30609,-0.1098 -2.61194,-0.2221 -3.91749,-0.3375 -0.58193,-0.049 -1.16386,-0.098 -1.76342,-0.1477 -1.36176,-0.1898 -1.36176,-0.1898 -2.06603,-0.8647 -1.89145,-0.3073 -3.77951,-0.5833 -5.67816,-0.8437 -6.34673,-0.8986 -12.59076,-2.1257 -18.83932,-3.5176 -5.35393,-1.1694 -5.35393,-1.1694 -10.69589,-0.3632 -1.96739,1.4123 -3.60994,3.0455 -5.282,4.7667 -0.46278,0.461 -0.92555,0.922 -1.40235,1.397 -1.30634,1.3089 -2.596,2.6309 -3.87966,3.9603 -0.84429,0.8678 -0.84429,0.8678 -1.70565,1.7532 -2.09708,2.2288 -3.73531,4.4357 -5.33702,7.0209 -0.46482,0 -0.92963,0 -1.40853,0 -0.23241,0.8909 -0.46482,1.7818 -0.70427,2.6997 -0.46482,0 -0.92963,0 -1.40854,0 -0.1743,0.4594 -0.34861,0.9188 -0.5282,1.3921 -1.0512,2.3675 -2.34177,4.486 -3.6974,6.7071 -0.23241,0.4455 -0.46482,0.891 -0.70427,1.3499 -0.46481,0 -0.92963,0 -1.40853,0 -0.0826,0.502 -0.16523,1.004 -0.25035,1.5212 -0.4504,1.8391 -1.03078,2.9351 -2.08254,4.511 -2.43737,4.0371 -3.49654,8.3812 -4.70978,12.866 -0.24104,0.706 -0.24104,0.706 -0.48694,1.4263 -2.44072,7.377 -1.45848,15.9602 1.89547,22.8713 0.88958,1.4901 1.80945,2.9085 2.85008,4.3053 0.67126,1.0941 0.67126,1.0941 0.67126,3.1189 0.69722,0.2228 1.39445,0.4455 2.1128,0.675 0,0.4454 0,0.8909 0,1.3499 0.6128,0.2636 0.6128,0.2636 1.23797,0.5325 1.68296,0.8711 2.90247,1.8563 4.30813,3.0952 2.86516,2.4544 5.55045,4.6416 9.24351,5.8213 0,0.4455 0,0.8909 0,1.3499 0.7408,0.1096 0.7408,0.1096 1.49657,0.2214 2.27979,0.5106 4.14432,1.3307 6.25037,2.3096 7.78435,3.5077 15.63891,6.1415 23.94509,8.2679 0.62914,0.1723 1.25827,0.3446 1.90647,0.522 8.76799,2.2884 18.01158,3.6872 27.04827,4.577 2.73729,0.3005 2.73729,0.3005 4.14582,0.9754 5.4063,1.0384 9.00851,-0.7186 13.44367,-3.4193 2.32815,-1.4156 4.22555,-2.343 6.98008,-2.6551 0,-0.4454 0,-0.8909 0,-1.3498 0.41852,-0.1966 0.83703,-0.3933 1.26823,-0.5959 4.02798,-1.9091 7.9658,-3.925 11.86801,-6.0612 1.65338,-0.7672 1.65338,-0.7672 3.76618,-0.7672 0,-0.4455 0,-0.8909 0,-1.3499 0.78256,-0.3506 1.56512,-0.7012 2.3714,-1.0625 4.96604,-2.2295 9.91977,-4.4679 14.81162,-6.8442 2.85225,-1.3503 5.7397,-2.6276 8.62762,-3.9061 2.04832,-0.9084 4.06876,-1.8366 6.06846,-2.8406 1.92573,-0.8701 1.92573,-0.8701 4.03853,-0.8701 0,-0.4454 0,-0.8909 0,-1.3498 1.62686,-0.2227 3.25372,-0.4455 4.92987,-0.675 0,-0.4454 0,-0.8909 0,-1.3498 0.99682,-0.3798 0.99682,-0.3798 2.01376,-0.7672 7.35065,-2.8057 14.66062,-5.6902 21.93133,-8.6819 1.6432,-0.6751 3.28648,-1.3501 4.92987,-2.0248 0.71175,-0.2932 1.4235,-0.5864 2.15682,-0.8885 3.8235,-1.5544 7.67577,-3.0171 11.57639,-4.3844 0.80617,-0.2827 1.61233,-0.5655 2.44293,-0.8568 2.13481,-0.6196 2.13481,-0.6196 4.95188,-0.6196 0,-0.4455 0,-0.8909 0,-1.3499 0.68089,-0.2123 1.36176,-0.4246 2.06329,-0.6433 0.92622,-0.2916 1.8524,-0.5834 2.77855,-0.8753 0.44484,-0.1384 0.88968,-0.2767 1.34801,-0.4192 2.58974,-0.819 5.12191,-1.7155 7.64515,-2.7076 4.42879,-1.7205 8.95944,-3.1264 13.49937,-4.5506 1.67754,-0.5281 3.35477,-1.0571 5.03166,-1.5872 0.73337,-0.2302 1.46674,-0.4604 2.22233,-0.6976 1.32661,-0.4358 2.64068,-0.9089 3.9364,-1.4231 1.81414,-0.6667 3.21333,-0.7003 5.13981,-0.5948 0,-0.4454 0,-0.8909 0,-1.3498 2.09168,-0.2228 4.18335,-0.4455 6.33841,-0.675 0,-0.4454 0,-0.8909 0,-1.3499 2.09167,-0.2227 4.18335,-0.4454 6.3384,-0.6749 0,-0.4454 0,-0.8909 0,-1.3499 0.40853,-0.082 0.81706,-0.1635 1.23797,-0.2478 0.82523,-0.1697 0.82523,-0.1697 1.66714,-0.3427 0.53925,-0.1096 1.07851,-0.2192 1.63411,-0.3322 1.83506,-0.4115 1.83506,-0.4115 3.72767,-1.0441 3.41508,-1.0896 6.8899,-1.9582 10.36456,-2.8552 2.26223,-0.5925 4.43977,-1.1869 6.61763,-2.0275 1.96021,-0.7445 3.65157,-0.6677 5.73868,-0.5747 0,-0.4455 0,-0.8909 0,-1.3499 0.40037,-0.082 0.80072,-0.1635 1.21321,-0.2478 0.8157,-0.1697 0.8157,-0.1697 1.64788,-0.3428 0.53109,-0.1096 1.06218,-0.2192 1.60936,-0.3322 2.28898,-0.5233 4.53694,-1.1509 6.79783,-1.7769 7.35314,-1.9778 14.71865,-3.9237 22.14035,-5.6526 0.7039,-0.1695 0.7039,-0.1695 1.422,-0.3424 2.9937,-0.6798 5.7635,-0.8531 8.8339,-0.7543 0,-0.4455 0,-0.891 0,-1.3499 2.8543,-0.6631 5.5205,-0.73 8.4512,-0.6749 0,-0.4455 0,-0.891 0,-1.3499 0.5611,-0.082 1.1221,-0.1636 1.7002,-0.2479 0.7462,-0.1131 1.4925,-0.2261 2.2613,-0.3427 0.7354,-0.1096 1.4708,-0.2192 2.2284,-0.3322 2.2552,-0.4259 4.3121,-1.0714 6.487,-1.777 1.5795,-0.3587 3.1646,-0.6953 4.7538,-1.0124 0.8715,-0.1748 1.743,-0.3497 2.641,-0.5299 2.492,-0.4878 4.9867,-0.9608 7.4828,-1.429 1.6489,-0.3285 3.2887,-0.677 4.9299,-1.0387 5.9406,-1.3055 11.7962,-2.4367 17.8515,-3.148 1.7316,-0.087 1.7316,-0.087 2.4842,-0.9412 2.5604,-0.3245 5.1206,-0.5891 7.6892,-0.8436 2.7187,-0.053 2.7187,-0.053 4.9876,-1.1812 2.2574,-0.3235 4.5148,-0.5886 6.7813,-0.8436 2.4524,-0.1038 2.4524,-0.1038 4.48701,-1.1812 0.9343,-0.1439 1.8752,-0.2497 2.817,-0.3374 0.56652,-0.055 1.13302,-0.1114 1.71672,-0.1688 1.2031,-0.1125 2.4062,-0.225 3.6094,-0.3374 0.5665,-0.055 1.1329,-0.1114 1.7166,-0.1688 0.523,-0.049 1.0459,-0.097 1.5846,-0.1476 1.2493,-0.074 1.2493,-0.074 1.9368,-0.8648 1.4075,-0.2425 2.8225,-0.4459 4.2393,-0.6327 0.881,-0.1166 1.7622,-0.2332 2.6699,-0.3533 0.4639,-0.06 0.9277,-0.1196 1.4056,-0.1813 1.3807,-0.1784 2.7606,-0.3623 4.1405,-0.5464 4.909,-0.6423 9.7966,-1.1771 14.7406,-1.4948 1.7814,-0.1174 1.7814,-0.1174 3.7918,-0.8411 2.1174,-0.3188 4.2503,-0.5101 6.3825,-0.7171 0.6193,-0.06 1.2387,-0.1207 1.8768,-0.1829 6.1757,-0.5559 12.3067,-0.5789 18.5029,-0.4498 0,-0.4455 0,-0.8909 0,-1.3499 1.2745,-0.056 1.2745,-0.056 2.5748,-0.1132 3.141,-0.139 6.2816,-0.282 9.4223,-0.4265 1.3615,-0.062 2.723,-0.1228 4.0846,-0.1825 1.9528,-0.086 3.9053,-0.1757 5.8578,-0.2665 0.9189,-0.039 0.9189,-0.039 1.8563,-0.079 2.7651,0.1175 2.7651,0.1175 5.0791,-0.9572 1.8682,-0.164 3.7189,-0.2851 5.5915,-0.3741 0.5701,-0.028 1.1403,-0.057 1.7276,-0.086 6.0048,-0.278 12.0021,-0.3129 18.0125,-0.3044 1.1674,-4e-4 2.3347,0 3.5021,0 2.424,-6e-4 4.848,4e-4 7.2721,0 3.0679,0.01 6.1358,0 9.2037,0 2.4037,0 4.8075,0 7.2114,10e-5 1.1295,4e-4 2.2592,-10e-5 3.3887,0 6.0361,-0.01 12.0524,0.092 18.0811,0.3929 0.55,0.026 1.0999,0.052 1.6665,0.079 3.8387,0.2122 3.8387,0.2122 4.6293,0.9699 1.3464,0.146 2.6976,0.2506 4.0496,0.3374 0.8206,0.055 1.6413,0.1114 2.4869,0.1688 0.8642,0.055 1.7285,0.1113 2.619,0.1687 1.7021,0.1097 3.4041,0.222 5.1059,0.3375 0.759,0.049 1.5179,0.097 2.2999,0.1476 1.7497,0.1898 1.7497,0.1898 2.4539,0.8648 2.0235,0.3191 4.0445,0.6091 6.0743,0.8858 16.0358,2.3195 31.4168,7.0697 43.9287,17.3374 0,0.4454 0,0.8909 0,1.3498 0.4648,0 0.9296,0 1.4085,0 0.073,0.4316 0.1453,0.8631 0.2201,1.3077 0.1598,0.4594 0.3196,0.9188 0.4842,1.3921 0.6972,0.2227 1.3945,0.4454 2.1128,0.6749 1.4616,1.9714 2.1128,2.9532 2.1128,5.3995 0.4648,0 0.9297,0 1.4086,0 1.9502,4.0858 3.141,7.692 3.3975,12.1936 -0.023,1.309 -0.023,1.309 0.8281,1.98 0.07,1.2218 0.091,2.4463 0.088,3.6699 0,0.6673 0.01,1.3346 0.01,2.0222 -0.093,1.7321 -0.093,1.7321 -0.7978,3.082 -0.2731,1.4867 -0.5191,2.978 -0.7482,4.4715 -0.1244,0.8021 -0.2488,1.6043 -0.377,2.4308 -0.1402,0.9265 -0.1402,0.9265 -0.2833,1.8719 -0.4648,0 -0.9296,0 -1.4085,0 -0.073,0.5847 -0.1453,1.1693 -0.2201,1.7717 -0.5081,2.3904 -1.3795,4.1968 -2.597,6.3275 -0.4648,0 -0.9296,0 -1.4085,0 -0.2324,0.8909 -0.4648,1.7818 -0.7043,2.6997 -0.4648,0 -0.9296,0 -1.4085,0 -0.148,0.4707 -0.296,0.9414 -0.4484,1.4263 -1.2517,2.54 -2.9761,4.1768 -5.0537,6.1245 -0.5509,0.5396 -0.5509,0.5396 -1.1128,1.0902 -2.111,2.0079 -3.8528,3.3415 -6.7662,4.1827 0,0.4455 0,0.891 0,1.3499 -0.9296,0.2227 -1.8593,0.4455 -2.8171,0.6749 0,0.4455 0,0.891 0,1.3499 -3.8113,2.6997 -3.8113,2.6997 -5.6341,2.6997 0,0.4455 0,0.891 0,1.3499 -0.6201,0.2898 -1.2402,0.5794 -1.879,0.878 -2.0956,1.0241 -4.0805,2.126 -6.088,3.2982 -4.4658,2.52 -9.0901,4.6067 -13.7938,6.6834 -2.4332,1.0759 -4.8207,2.2204 -7.2022,3.3984 -7.0811,3.4163 -14.3981,6.0385 -22.0194,8.1097 -1.9713,0.5355 -1.9713,0.5355 -3.9505,1.9299 -1.1673,0.3356 -2.336,0.6675 -3.5131,0.9703 -1.5043,0.4031 -2.975,0.8682 -4.4539,1.3498 -5.3778,1.7354 -10.8197,3.2275 -16.3,4.6349 -1.517,0.3976 -3.0171,0.8272 -4.5199,1.2708 -2.0247,0.5045 -3.6451,0.669 -5.7222,0.5484 0,0.4454 0,0.8909 0,1.3498 -0.4512,0.082 -0.9023,0.1636 -1.3672,0.2479 -0.9138,0.1697 -0.9138,0.1697 -1.846,0.3427 -0.5964,0.1096 -1.1929,0.2192 -1.8074,0.3322 -2.3522,0.4968 -4.6405,1.1274 -6.9519,1.777 -12.8601,3.5891 -12.8601,3.5891 -19.1748,4.4161 -2.0502,0.3237 -4.0393,0.7948 -6.0509,1.2897 -2.7132,0.6508 -5.4474,1.2042 -8.183,1.7606 -0.5597,0.1171 -1.1194,0.2341 -1.696,0.3546 -3.338,0.6794 -6.6297,1.1704 -10.0295,1.4605 -1.4879,0.1403 -1.4879,0.1403 -3.3722,0.8425 -2.6972,0.8271 -5.2582,0.9566 -8.0716,1.1601 -2.3666,0.2394 -4.524,0.9034 -6.8061,1.5396 -1.1864,0.1312 -2.3752,0.2425 -3.5653,0.3375 -2.0311,0.1634 -3.5642,0.3664 -5.5021,1.0124 -2.8631,0.878 -5.6332,0.963 -8.6218,1.1601 -2.4323,0.2274 -4.6167,0.8863 -6.9601,1.5396 -1.2744,0.1329 -2.5514,0.2435 -3.8295,0.3375 -2.763,0.2042 -5.2636,0.6354 -7.945,1.3288 -5.6211,1.2544 -11.4845,1.6445 -17.2161,2.2199 -1.3382,0.1345 -1.3382,0.1345 -2.7035,0.2717 -1.8103,0.1801 -3.621,0.3572 -5.432,0.5309 -0.83402,0.082 -1.66812,0.1645 -2.52752,0.2493 -1.1328,0.1091 -1.1328,0.1091 -2.28851,0.2203 -1.6816,0.068 -1.6816,0.068 -2.4268,0.916 -1.1404,0.1452 -2.2864,0.2503 -3.4333,0.3375 -1.0404,0.084 -1.0404,0.084 -2.1018,0.1687 -1.4745,0.1125 -2.9491,0.225 -4.4237,0.3375 -1.0403,0.084 -1.0403,0.084 -2.1018,0.1687 -0.6409,0.049 -1.2818,0.098 -1.9422,0.1477 -1.4783,0.041 -1.4783,0.041 -2.1953,0.8647 -1.2949,0.1459 -2.5949,0.2506 -3.8955,0.3375 -1.1834,0.084 -1.1834,0.084 -2.3907,0.1687 -1.6781,0.1125 -3.3562,0.225 -5.0344,0.3375 -1.1833,0.084 -1.1833,0.084 -2.3906,0.1687 -0.7295,0.049 -1.4589,0.098 -2.2105,0.1477 -1.6499,0.017 -1.6499,0.017 -2.3893,0.8647 -1.5521,0.1468 -3.1087,0.251 -4.6657,0.3375 -0.4663,0.028 -0.9326,0.055 -1.4131,0.083 -2.0023,0.1177 -4.0051,0.2279 -6.0079,0.3388 -1.4587,0.082 -2.9171,0.1674 -4.3755,0.2531 -0.877,0.049 -1.754,0.097 -2.6575,0.1477 -1.9357,-0.022 -1.9357,-0.022 -2.7126,0.8647 -1.4841,0.1467 -2.9729,0.251 -4.4622,0.3375 -1.3644,0.084 -1.3644,0.084 -2.7565,0.1687 -0.9683,0.057 -1.9367,0.1128 -2.9051,0.1688 -1.8838,0.1093 -3.7672,0.2224 -5.6506,0.3374 -0.8401,0.049 -1.6802,0.098 -2.5458,0.1477 -2.139,0.1164 -2.139,0.1164 -4.2163,0.8647 -1.6685,0.1406 -3.3401,0.248 -5.0124,0.3375 -0.4889,0.028 -0.9778,0.055 -1.4815,0.083 -1.562,0.088 -3.1241,0.1713 -4.6864,0.2545 -1.5572,0.083 -3.1143,0.1674 -4.6712,0.2544 -1.4166,0.079 -2.8333,0.155 -4.25,0.2307 -2.3279,0.1343 -2.3279,0.1343 -4.1558,0.5273 -2.53098,0.4743 -5.06826,0.5606 -7.63831,0.6749 -0.85432,0.04 -0.85432,0.04 -1.7259,0.082 -1.85101,0.088 -3.70217,0.1714 -5.55336,0.2551 -1.27151,0.059 -2.543,0.1192 -3.8145,0.1791 -8.28423,0.3851 -16.5691,0.7166 -24.85998,0.94 -0.71164,0.022 -1.42327,0.043 -2.15648,0.065 -0.61364,0.016 -1.22729,0.032 -1.85953,0.049 -1.3807,-0.025 -1.3807,-0.025 -2.08271,0.7921 -1.59238,0.1004 -3.18799,0.154 -4.78337,0.1899 -0.75088,0.018 -0.75088,0.018 -1.51692,0.037 -1.09209,0.026 -2.18423,0.051 -3.27639,0.074 -1.73625,0.037 -3.47237,0.078 -5.2085,0.1197 -3.07156,0.073 -6.14321,0.1434 -9.21489,0.2123 -4.88625,0.1095 -9.77242,0.2221 -14.65849,0.3389 -1.69629,0.04 -3.39264,0.077 -5.08901,0.1132 -4.58671,0.105 -9.14612,0.2404 -13.71916,0.618 -5.27428,0.4244 -10.54109,0.4197 -15.82934,0.4115 -1.05725,5e-4 -2.1145,0 -3.17175,0 -2.19398,0 -4.38793,-4e-4 -6.58191,-0.01 -2.81412,-0.01 -5.6282,0 -8.44234,0 -2.17315,0 -4.3463,0 -6.51945,-10e-5 -1.03867,-4e-4 -2.07735,2e-4 -3.11603,0 -1.44245,0 -2.88491,0 -4.32736,-0.01 -0.82002,-6e-4 -1.64004,0 -2.48492,0 -1.92587,-0.086 -1.92587,-0.086 -3.3344,-0.7607 -1.45191,-0.1007 -2.90703,-0.1601 -4.36213,-0.2005 -1.37458,-0.041 -1.37458,-0.041 -2.77694,-0.082 -1.00409,-0.026 -2.00819,-0.053 -3.01228,-0.079 -1.02434,-0.029 -2.04867,-0.058 -3.07299,-0.088 -2.69759,-0.077 -5.39529,-0.1504 -8.09303,-0.223 -2.75219,-0.075 -5.50426,-0.1529 -8.25636,-0.2309 -5.40111,-0.1524 -10.80234,-0.3009 -16.20364,-0.4468 0,-0.4455 0,-0.891 0,-1.3499 -10.29586,-0.034 -10.29586,-0.034 -19.01522,4.7245 -1.33743,0.8616 -2.68794,1.7049 -4.04954,2.531 -0.62096,0.3863 -1.24193,0.7726 -1.88172,1.1706 -1.74083,0.9808 -3.44417,1.7073 -5.33702,2.3728 0,0.4455 0,0.8909 0,1.3499 -1.46278,0.9864 -2.92128,1.8928 -4.44568,2.7841 -4.0407,2.4136 -7.88078,4.9625 -11.67544,7.7222 -1.48556,0.9676 -1.48556,0.9676 -2.89409,0.9676 0,0.4454 0,0.8909 0,1.3498 -1.03394,0.8852 -2.11419,1.7211 -3.21322,2.531 -4.32835,3.24 -8.44412,6.5193 -12.28067,10.2928 -0.80616,0.7596 -0.80616,0.7596 -1.62861,1.5344 -6.67253,6.4876 -14.79988,14.4871 -15.44987,23.9865 0.0984,5.0916 2.84822,8.8107 6.51448,12.2754 0.46481,0.2227 0.92963,0.4454 1.40853,0.6749 0,0.4455 0,0.8909 0,1.3499 0.61688,0.288 0.61688,0.288 1.24622,0.5818 1.43381,0.701 2.79589,1.4523 4.16783,2.2576 5.80346,3.3673 11.4751,6.3051 17.82677,8.6345 1.30634,0.5473 2.61215,1.0957 3.91749,1.6451 13.18573,5.2528 28.25078,9.3564 42.4321,10.9255 2.24485,0.2531 2.24485,0.2531 2.94912,0.928 1.84866,0.2929 3.68882,0.5486 5.54611,0.7805 0.56235,0.072 1.1247,0.1446 1.7041,0.2192 1.80851,0.2319 3.61754,0.4598 5.4266,0.6877 1.19857,0.1535 2.39711,0.3073 3.59562,0.4614 1.16366,0.1487 2.32735,0.2972 3.49107,0.4456 0.53506,0.068 1.07012,0.1364 1.62139,0.2066 3.23203,0.4069 6.46383,0.7616 9.70862,1.0625 1.30279,0.1861 1.30279,0.1861 2.71132,0.8611 1.41293,0.1424 2.82989,0.2489 4.24761,0.3374 0.84702,0.055 1.69404,0.1114 2.56673,0.1688 0.88878,0.055 1.77755,0.1113 2.69327,0.1687 1.75351,0.1099 3.50686,0.2222 5.26,0.3375 0.78029,0.049 1.56058,0.097 2.36452,0.1477 1.88309,0.1897 1.88309,0.1897 3.29162,0.8647 1.89952,0.1451 3.78649,0.2546 5.68916,0.3374 0.56637,0.028 1.13274,0.055 1.71626,0.083 1.81569,0.088 3.63154,0.1714 5.44746,0.2544 1.80585,0.083 3.61162,0.1674 5.41728,0.2545 1.12394,0.054 2.248,0.106 3.37217,0.1555 2.20806,0.1059 4.32449,0.2499 6.50618,0.6102 2.85345,0.4406 5.66709,0.4875 8.55317,0.5432 0.92828,0.021 0.92828,0.021 1.87531,0.043 2.00392,0.044 4.00789,0.084 6.01194,0.1233 0.68229,0.014 1.36458,0.028 2.06756,0.043 14.85575,0.3139 14.85575,0.3139 29.71387,0.2747 1.20395,-0.015 2.40808,-0.02 3.61212,-0.015 7.69708,0.027 12.9004,-1.0316 19.31921,-5.4064 1.29961,-0.7551 2.60516,-1.5011 3.91749,-2.2357 1.77813,-1.0214 3.51216,-2.0612 5.23799,-3.1638 0.69722,0 1.39445,0 2.1128,0 0,-0.4455 0,-0.8909 0,-1.3499 1.60991,-1.0346 3.2101,-1.9833 4.88585,-2.9106 0.48138,-0.2705 0.96277,-0.541 1.45874,-0.8198 1.40357,-0.7862 2.8113,-1.5652 4.21942,-2.344 0.67271,-0.3793 1.34542,-0.7587 2.03852,-1.1494 4.02326,-2.2252 4.02326,-2.2252 6.41268,-2.2252 0,-0.4455 0,-0.8909 0,-1.3499 0.60009,-0.2827 1.20017,-0.5655 1.81844,-0.8568 3.21592,-1.5604 6.35349,-3.2492 9.50211,-4.9302 2.06053,-0.9623 2.06053,-0.9623 4.17334,-0.9623 0,-0.4455 0,-0.891 0,-1.3499 1.86447,-0.9858 2.74275,-1.3499 4.92987,-1.3499 0,-0.4454 0,-0.8909 0,-1.3498 1.39445,-0.2228 2.78889,-0.4455 4.22559,-0.675 0,-0.4454 0,-0.8909 0,-1.3498 1.3944,-0.2228 2.7889,-0.4455 4.2256,-0.675 0,-0.4454 0,-0.8909 0,-1.3498 0.7417,-0.3272 1.4834,-0.6543 2.2476,-0.9913 5.1408,-2.2845 10.2171,-4.6166 15.183,-7.2345 4.0031,-2.103 8.0511,-3.7838 12.355,-5.2677 1.8755,-0.6264 1.8755,-0.6264 3.4388,-1.4447 1.2847,-0.5853 1.2847,-0.5853 3.3975,-0.5853 0,-0.4455 0,-0.8909 0,-1.3499 2.7679,-1.0617 5.5375,-2.119 8.309,-3.172 0.9425,-0.3588 1.8845,-0.7189 2.826,-1.0803 1.3535,-0.5192 2.7088,-1.034 4.0645,-1.5479 1.2226,-0.4666 1.2226,-0.4666 2.4699,-0.9425 2.0501,-0.6816 2.0501,-0.6816 4.1629,-0.6816 0,-0.4454 0,-0.8909 0,-1.3498 0.6645,-0.2045 1.3291,-0.409 2.0137,-0.6196 4.3139,-1.3436 8.5676,-2.7085 12.7319,-4.4424 4.2295,-1.7435 8.5557,-3.0376 12.9574,-4.3106 2.7733,-0.8076 5.5187,-1.676 8.2586,-2.5811 3.9687,-1.3036 7.98461,-2.4112 12.02213,-3.5012 1.8792,-0.5092 3.7525,-1.0343 5.6232,-1.5714 8.3277,-2.3904 16.6472,-4.7595 25.271,-5.9215 0.6828,-0.2227 1.3654,-0.4454 2.0688,-0.6749 1.82,-0.5695 3.3121,-0.8525 5.194,-1.0546 2.4536,-0.019 2.4536,-0.019 3.3012,-0.9702 2.4089,-0.3241 4.8177,-0.5889 7.2353,-0.8437 2.5855,-0.078 2.5855,-0.078 4.7373,-1.1811 1.9666,-0.2539 3.9253,-0.4772 5.8982,-0.675 1.0915,-0.1104 2.1828,-0.2228 3.2737,-0.3374 0.4861,-0.049 0.9721,-0.097 1.4729,-0.1476 1.4826,-0.1746 1.4826,-0.1746 3.4405,-0.8648 3.2038,-0.3406 6.4232,-0.5187 9.6397,-0.7171 0.4804,-0.03 0.9609,-0.059 1.4559,-0.09 16.1939,-0.9796 32.6649,-1.3743 48.7672,0.8075 0.2324,0.2227 0.4648,0.4454 0.7042,0.6749 1.2871,0.2202 2.5794,0.4121 3.8735,0.5906 3.8353,0.5803 7.2753,1.5047 10.9161,2.7841 0,0.4454 0,0.8909 0,1.3498 1.3945,0.2228 2.7889,0.4455 4.2256,0.675 0,0.4454 0,0.8909 0,1.3498 0.6973,0.042 0.6973,0.042 1.4086,0.084 5.2261,1.4608 10.0107,6.0606 13.3811,10.0397 0.5089,1.5133 0.5089,1.5133 0.7042,2.6997 0.4648,0 0.9297,0 1.4086,0 0.6922,1.5175 1.3813,3.0362 2.0687,4.5558 0.1957,0.428 0.3913,0.8561 0.5929,1.2971 3.4356,7.6165 3.7329,17.7736 1.1238,25.7002 -1.5279,3.598 -3.4101,7.2133 -5.8982,10.2928 -0.4649,0 -0.9297,0 -1.4086,0 -0.2324,0.8909 -0.4648,1.7818 -0.7042,2.6997 -0.4649,0 -0.9297,0 -1.4086,0 -0.1743,0.3863 -0.3486,0.7726 -0.5282,1.1706 -1.0164,1.7655 -2.2059,2.9787 -3.6974,4.3976 -0.4939,0.4768 -0.9877,0.9536 -1.4966,1.4448 -1.3205,1.0862 -1.3205,1.0862 -2.729,1.0862 -0.2324,0.6682 -0.4648,1.3364 -0.7043,2.0248 -1.1853,0.9711 -1.1853,0.9711 -2.7235,1.9748 -0.5624,0.3691 -1.1249,0.7383 -1.7043,1.1187 -0.6014,0.3851 -1.2028,0.7703 -1.8225,1.1671 -0.607,0.3925 -1.2138,0.785 -1.8391,1.1895 -11.5115,7.3737 -11.5115,7.3737 -15.1514,7.3737 0,0.4454 0,0.8909 0,1.3498 -0.5611,0.2201 -1.1221,0.4403 -1.7001,0.6671 -4.6688,1.8378 -4.6688,1.8378 -9.216,3.9309 -1.7607,0.8015 -1.7607,0.8015 -4.5778,0.8015 0,0.4455 0,0.8909 0,1.3499 -6.6194,2.5192 -13.304,4.7837 -20.0594,6.9413 -1.6329,0.5226 -3.2634,1.0517 -4.8939,1.5811 -6.1029,1.9634 -12.1949,3.6684 -18.4655,5.0697 -2.0624,0.5085 -3.9126,1.1673 -5.8799,1.9314 -0.8279,0.1113 -1.6559,0.2227 -2.5089,0.3374 -2.2983,0.1958 -2.2983,0.1958 -3.7305,0.9676 -4.4884,2.1429 -9.8945,2.9084 -14.8639,3.2112 -1.7894,0.2601 -3.2768,0.9098 -4.9546,1.5582 -6.0697,1.503 -12.1756,2.3868 -18.3907,3.0846 -1.955,0.081 -1.955,0.081 -2.7373,0.965 -2.2574,0.3235 -4.5148,0.5886 -6.7813,0.8436 -2.4524,0.1037 -2.4524,0.1037 -4.487,1.1812 -2.0986,0.2536 -4.18992,0.4771 -6.29442,0.6749 -1.1657,0.1101 -2.33131,0.2225 -3.49651,0.3375 -0.5193,0.049 -1.0385,0.097 -1.5735,0.1476 -1.374,0.1325 -1.374,0.1325 -2.7209,0.8648 -1.0014,0.1391 -2.0077,0.2473 -3.0152,0.3374 -0.8892,0.084 -0.8892,0.084 -1.7964,0.1688 -1.2526,0.1125 -2.5053,0.2249 -3.7579,0.3374 -0.8893,0.084 -0.8893,0.084 -1.7964,0.1688 -0.5443,0.049 -1.0886,0.097 -1.6493,0.1477 -1.4199,0.1272 -1.4199,0.1272 -2.7744,0.8647 -1.1641,0.1406 -2.3326,0.248 -3.5021,0.3374 -0.6913,0.055 -1.3827,0.1114 -2.0949,0.1688 -1.4654,0.1127 -2.9308,0.2251 -4.3962,0.3374 -1.0356,0.084 -1.0356,0.084 -2.0922,0.1688 -0.6364,0.049 -1.2729,0.097 -1.9286,0.1477 -1.4685,0.043 -1.4685,0.043 -2.1842,0.8647 -1.3812,0.1463 -2.7673,0.2508 -4.1541,0.3374 -1.2691,0.084 -1.2691,0.084 -2.5639,0.1688 -1.3373,0.083 -1.3373,0.083 -2.7015,0.1687 -1.7517,0.1101 -3.5032,0.2225 -5.2545,0.3375 -0.7811,0.049 -1.5622,0.097 -2.367,0.1477 -2.0298,0.125 -2.0298,0.125 -4.087,0.8647 -1.6556,0.1412 -3.3144,0.2483 -4.9739,0.3374 -0.7394,0.04 -0.7394,0.04 -1.4938,0.082 -1.6001,0.088 -3.2003,0.1713 -4.8006,0.255 -1.0921,0.059 -2.1842,0.1191 -3.2763,0.1791 -4.6448,0.2533 -9.29,0.4952 -13.937,0.7094 -0.9375,0.044 -0.9375,0.044 -1.894,0.088 -1.115,0.051 -2.2301,0.098 -3.3453,0.1424 -2.3583,-0.082 -2.3583,-0.082 -4.3095,0.9056 -1.3098,0.1 -2.6233,0.1538 -3.9366,0.1899 -1.2621,0.037 -1.2621,0.037 -2.5497,0.075 -0.9162,0.024 -1.8325,0.048 -2.7765,0.072 -0.943,0.027 -1.886,0.055 -2.82901,0.083 -2.99729,0.089 -5.99473,0.1718 -8.99221,0.2544 -3.46997,0.096 -6.93986,0.1937 -10.4096,0.2968 -1.3927,0.041 -2.78551,0.077 -4.17832,0.1132 -1.26542,0.037 -1.26542,0.037 -2.55642,0.075 -0.74541,0.02 -1.49084,0.041 -2.25885,0.062 -1.76613,0.02 -1.76613,0.02 -3.17738,0.8028 -1.04845,0.063 -2.09946,0.089 -3.14995,0.095 -0.63412,0.013 -1.26825,0.026 -1.9216,0.04 -1.32402,0.022 -2.64827,0.035 -3.97251,0.037 -4.91503,0.1268 -8.02886,1.2697 -12.08396,3.8782 -0.58959,0.3686 -1.17917,0.7372 -1.78663,1.1169 -1.92888,1.2242 -3.83631,2.4746 -5.74022,3.7342 -0.67987,0.4473 -1.35972,0.8946 -2.06019,1.3555 -9.02227,5.9506 -17.87989,12.0832 -26.57268,18.4707 -0.38663,0.2822 -0.77326,0.5645 -1.1716,0.8553 -1.08046,0.7891 -2.1581,1.5816 -3.23557,2.3744 -1.68914,1.1152 -1.68914,1.1152 -3.09768,1.1152 -0.23241,0.6681 -0.46481,1.3363 -0.70427,2.0248 -0.46481,0 -0.92963,0 -1.40853,0 0,0.4454 0,0.8909 0,1.3498 -0.92963,0.2227 -1.85927,0.4455 -2.81707,0.675 0,0.4454 0,0.8909 0,1.3498 -1.24219,0.9048 -2.48937,1.8035 -3.75243,2.6813 -8.29171,6.0295 -16.40435,12.8423 -23.49391,20.1399 -0.92435,0.8015 -0.92435,0.8015 -2.33289,0.8015 -0.15978,0.368 -0.31956,0.736 -0.48418,1.1152 -1.20616,2.0676 -2.75793,3.6109 -4.44569,5.3389 -1.81309,1.8613 -3.45539,3.5751 -4.92987,5.6947 -0.46481,0 -0.92963,0 -1.40853,0 -0.27372,0.5547 -0.27372,0.5547 -0.55296,1.1205 -0.98814,1.8239 -2.11426,3.5222 -3.2765,5.2492 -2.15831,3.2121 -4.29562,6.4057 -6.0743,9.8287 -0.33908,0.6474 -0.33908,0.6474 -0.68501,1.3077 -2.0397,4.1786 -2.73313,7.571 -2.08804,12.191 1.76374,4.5217 6.24464,6.7785 10.56401,8.7741 24.52436,10.005 52.60354,12.4352 79.00289,13.3585 1.0514,0.037 2.10269,0.077 3.15382,0.1207 1.47368,0.059 2.94699,0.1021 4.42139,0.1408 0.84288,0.026 1.68576,0.052 2.55418,0.079 4.31194,-0.3561 7.20881,-1.8771 10.1694,-4.9246 0.46482,0 0.92964,0 1.40854,0 0.23241,-0.6682 0.46482,-1.3364 0.70427,-2.0248 0.69722,0 1.39445,0 2.1128,0 0,-0.4455 0,-0.8909 0,-1.3499 1.22224,-0.9755 2.49293,-1.8957 3.78543,-2.7841 0.70267,-0.489 1.40535,-0.9779 2.12931,-1.4817 1.8322,-1.1337 1.8322,-1.1337 3.24073,-1.1337 0,-0.4454 0,-0.8909 0,-1.3498 1.31225,-1.1654 1.31225,-1.1654 3.03716,-2.4467 0.56377,-0.4262 1.12753,-0.8526 1.70839,-1.2918 1.59286,-0.9861 1.59286,-0.9861 3.70566,-0.9861 0,-0.4454 0,-0.8909 0,-1.3498 1.4791,-0.9943 2.9422,-1.8987 4.4897,-2.7841 0.63731,-0.3772 0.63731,-0.3772 1.28749,-0.762 3.18789,-1.8534 3.18789,-1.8534 4.78682,-1.8534 0,-0.4455 0,-0.8909 0,-1.3499 4.66577,-2.6997 4.66577,-2.6997 7.04267,-2.6997 0,-0.4455 0,-0.8909 0,-1.3499 0.78438,-0.3619 1.56876,-0.7238 2.3769,-1.0967 2.23622,-1.066 4.3529,-2.2333 6.4705,-3.5013 3.0544,-1.7827 6.188,-3.3073 9.4195,-4.7667 0.4585,-0.2095 0.9171,-0.419 1.3895,-0.6349 2.0294,-0.9001 3.4336,-1.4742 5.6972,-1.4742 0,-0.4455 0,-0.891 0,-1.3499 0.6646,-0.2532 1.3291,-0.5063 2.0138,-0.7672 0.9134,-0.3488 1.8267,-0.6977 2.74,-1.0467 0.4846,-0.1849 0.9693,-0.3699 1.4686,-0.5604 2.7993,-1.0719 5.5781,-2.1783 8.3471,-3.3205 8.018,-3.2172 16.3494,-6.1105 24.8035,-8.0701 1.482,-0.3601 1.482,-0.3601 2.7713,-1.0578 1.5935,-0.7345 3.0631,-1.1373 4.783,-1.5233 0.6264,-0.1419 1.2529,-0.2837 1.8982,-0.4298 0.6501,-0.1436 1.3001,-0.2871 1.9698,-0.435 0.6337,-0.1436 1.2673,-0.2871 1.9202,-0.435 10.9249,-2.4521 10.9249,-2.4521 16.3467,-2.9819 2.6092,0 2.6092,0 3.4773,-0.9702 5.6247,-0.9876 11.4579,-0.7787 17.15541,-0.7629 1.5512,0.01 3.1023,0 4.65362,-0.01 13.0828,-0.01 13.0828,-0.01 19.0386,2.1171 0.936,0.2361 1.8739,0.4664 2.817,0.6749 0,0.4455 0,0.8909 0,1.3499 0.5956,0.055 1.1911,0.1113 1.8047,0.1687 2.9288,0.6124 4.8125,1.6977 7.3508,3.2059 0,0.4455 0,0.891 0,1.3499 0.4212,0.1949 0.8425,0.3898 1.2765,0.5906 1.5406,0.7593 1.5406,0.7593 3.6534,2.1092 0,0.4454 0,0.8909 0,1.3498 0.6972,0.2227 1.3944,0.4455 2.1128,0.675 1.1306,1.3234 1.1306,1.3234 2.2448,2.9528 0.3732,0.5342 0.7463,1.0684 1.1307,1.6188 0.8501,1.5028 0.8501,1.5028 0.8501,3.5276 0.4648,0 0.9296,0 1.4085,0 4.2362,7.7504 4.131,16.9663 2.2889,25.3522 -0.2905,0.7656 -0.581,1.5313 -0.8803,2.32 -0.2234,0.6012 -0.4467,1.2024 -0.6768,1.8218 -2.0688,5.1962 -4.9052,9.3456 -8.4787,13.7017 -0.5638,0.7726 -0.5638,0.7726 -1.139,1.5608 -0.482,0.5638 -0.482,0.5638 -0.9738,1.139 -0.4648,0 -0.9297,0 -1.4086,0 0,0.4454 0,0.8909 0,1.3498 -1.1754,1.0575 -2.4029,2.0621 -3.6533,3.0372 -0.6783,0.536 -1.3564,1.0719 -2.0551,1.6241 -1.8443,1.2786 -3.4158,2.0719 -5.5598,2.763 0,0.4455 0,0.8909 0,1.3499 -4.6658,2.6997 -4.6658,2.6997 -7.0427,2.6997 0,0.4455 0,0.8909 0,1.3499 -0.398,0.1769 -0.796,0.3538 -1.206,0.5361 -1.8003,0.8026 -3.5984,1.6096 -5.3965,2.4167 -0.6265,0.2784 -1.2528,0.5568 -1.8982,0.8437 -0.8988,0.4045 -0.8988,0.4045 -1.8157,0.8173 -0.5533,0.2474 -1.1065,0.4948 -1.6765,0.7497 -1.4955,0.6831 -1.4955,0.6831 -2.7967,2.0607 -1.29052,0.3486 -1.29052,0.3486 -2.84192,0.6196 -3.51591,0.6908 -6.78021,1.7805 -10.14311,2.966 -6.0778,2.0825 -12.1656,3.8971 -18.4161,5.4374 -1.7375,0.4356 -3.4645,0.9012 -5.1933,1.3673 -10.4148,2.6947 -20.9654,4.1917 -31.6315,5.6394 -0.7382,0.1004 -1.4764,0.2008 -2.237,0.3042 -4.2777,0.577 -8.558,1.1288 -12.843,1.6537 -1.1851,0.1462 -2.3697,0.2958 -3.5536,0.4507 -7.2678,0.9467 -14.5109,1.2535 -21.8369,1.4132 -1.5918,0.036 -3.1834,0.075 -4.775,0.1155 -0.53135,0.013 -1.06271,0.027 -1.61017,0.041 -1.08542,0.028 -2.17085,0.055 -3.25626,0.083 -2.76535,0.069 -5.5299,0.1248 -8.29603,0.1558 -2.72027,0.031 -5.43742,0.098 -8.15623,0.1885 -1.02194,0.028 -2.04434,0.043 -3.06668,0.044 -4.29354,0.01 -7.95288,0.09 -11.47352,2.7101 -1.80657,1.8699 -3.37813,3.7479 -4.90427,5.8329 -0.50349,0.6785 -1.00698,1.3569 -1.52573,2.056 -0.83083,1.1469 -1.64439,2.3056 -2.43578,3.4779 -0.31956,0.4011 -0.63912,0.8022 -0.96836,1.2154 -0.46482,0 -0.92964,0 -1.40854,0 -0.46481,1.3364 -0.92963,2.6728 -1.40853,4.0496 -0.46482,0 -0.92964,0 -1.40854,0 -0.15978,0.5429 -0.31956,1.0859 -0.48418,1.6452 -0.75661,1.9681 -1.55068,3.5211 -2.641,5.3151 -3.62042,6.1716 -4.79231,12.2871 -4.62176,19.3621 0.62489,2.1741 0.62489,2.1741 1.40854,4.0496 0.1162,0.5986 0.23241,1.1972 0.35213,1.8139 1.54445,2.2818 3.31553,2.5953 6.00553,3.2481 14.91078,2.4036 29.37369,-3.2922 42.19276,-9.9974 7.01659,-3.6492 13.55082,-6.632 21.68092,-4.4557 3.2776,1.2608 6.3199,2.9401 9.3509,4.6666 0,0.4455 0,0.8909 0,1.3499 0.6972,0.2227 1.3944,0.4454 2.1128,0.6749 0.9766,1.276 0.9766,1.276 1.8927,2.8685 0.4616,0.7778 0.4616,0.7778 0.9326,1.5713 0.7641,1.7946 0.8274,3.09 0.696,5.0093 0.4648,0 0.9296,0 1.4085,0 0.248,6.1875 0.095,11.291 -2.817,16.8733 -0.4649,0 -0.9297,0 -1.4086,0 -0.1076,0.6108 -0.1076,0.6108 -0.2173,1.2339 -1.2522,3.7698 -6.3057,5.6773 -9.7225,7.3831 -2.5329,1.2243 -5.0954,2.384 -7.6669,3.5318 -0.6139,0.2756 -1.2278,0.5512 -1.8604,0.8351 -9.49825,4.2228 -18.94373,7.6156 -29.12731,9.9639 -0.48683,0.119 -0.97367,0.2382 -1.47525,0.3609 -13.38954,3.2 -29.13551,3.4009 -42.18932,-1.0359 -0.79528,-0.2444 -1.59055,-0.4889 -2.40992,-0.7408 -8.31631,-2.7596 -14.89353,-7.2772 -20.83091,-13.4328 -0.72445,-0.6812 -0.72445,-0.6812 -1.46355,-1.3762 -4.17058,-4.0781 -4.17058,-4.0781 -4.17058,-6.723 -0.46482,0 -0.92964,0 -1.40854,0 -1.02867,-1.7868 -1.40853,-2.6285 -1.40853,-4.7245 -0.46482,0 -0.92964,0 -1.40854,0 -0.13617,-0.4403 -0.27235,-0.8805 -0.41266,-1.3341 -1.18075,-3.8034 -1.18075,-3.8034 -2.49244,-7.5666 -0.71116,-2.1906 -0.99552,-4.3537 -1.3205,-6.6228 -0.23241,-0.2227 -0.46482,-0.4454 -0.70427,-0.6749 -0.0702,-1.2922 -0.0921,-2.5869 -0.0935,-3.8809 -7.1e-4,-0.7865 -0.002,-1.573 -0.003,-2.3833 0.003,-0.8283 0.006,-1.6566 0.008,-2.51 -0.003,-0.8282 -0.006,-1.6565 -0.008,-2.5098 0.001,-1.1798 0.001,-1.1798 0.003,-2.3834 7e-4,-0.7274 0.001,-1.4547 0.002,-2.2041 0.0911,-1.6768 0.0911,-1.6768 0.7954,-2.3517 0.27994,-1.5842 0.52376,-3.1745 0.74828,-4.7668 0.12438,-0.8708 0.24875,-1.7418 0.37689,-2.6391 0.0935,-0.6742 0.18702,-1.3485 0.28336,-2.0432 0.46482,0 0.92964,0 1.40854,0 0.0427,-0.415 0.0853,-0.83 0.1293,-1.2576 0.0885,-0.8182 0.0885,-0.8182 0.17882,-1.6531 0.0572,-0.5402 0.11438,-1.0805 0.17331,-1.6372 0.22284,-1.5265 0.22284,-1.5265 0.9271,-3.5513 0.46482,0 0.92964,0 1.40854,0 0.10167,-0.7517 0.20336,-1.5034 0.30812,-2.2779 0.39615,-2.4467 0.39615,-2.4467 1.10041,-3.7965 0.46482,0 0.92964,0 1.40854,0 0.0653,-0.8144 0.0653,-0.8144 0.13205,-1.6452 0.75911,-3.1897 2.34409,-5.6948 4.09355,-8.4788 0.46482,0 0.92963,0 1.40854,0 0,-0.6682 0,-1.3364 0,-2.0248 -0.42697,0.017 -0.85395,0.034 -1.29386,0.052 -6.04567,0.1308 -11.89618,-0.6519 -17.85341,-1.5283 -0.52644,-0.076 -1.05287,-0.1525 -1.59527,-0.2311 -43.61523,-6.3388 -43.61523,-6.3388 -59.54394,-16.5157 -1.16591,-0.2598 -2.33974,-0.4913 -3.52133,-0.6749 0,-0.6682 0,-1.3364 0,-2.0248 -0.50022,-0.1688 -1.00045,-0.3376 -1.51583,-0.5115 -2.22101,-0.9285 -3.97376,-2.0767 -5.923,-3.4537 -0.65456,-0.4577 -1.30911,-0.9153 -1.9835,-1.3868 -1.69644,-1.2842 -3.22683,-2.5491 -4.66302,-4.0971 0,-0.4454 0,-0.8909 0,-1.3499 -0.46481,0 -0.92963,0 -1.40853,0 -1.3205,-1.3815 -1.3205,-1.3815 -2.81707,-3.2059 -0.49387,-0.5951 -0.98774,-1.1902 -1.49657,-1.8033 -1.72282,-2.2703 -2.72904,-3.6334 -2.72904,-6.4646 -0.46481,0 -0.92963,0 -1.40853,0 -0.69358,-1.9393 -1.38248,-3.8798 -2.06879,-5.8213 -0.19563,-0.5455 -0.39128,-1.0911 -0.59285,-1.6531 -5.20865,-14.7947 -2.1426,-30.6914 4.77444,-44.4955 2.57566,-4.8611 5.46388,-9.4848 8.99041,-13.7729 1.13698,-1.4069 2.03963,-2.9188 2.98214,-4.4504 0.59116,-0.8643 1.19344,-1.7217 1.80468,-2.5731 0.29142,-0.4081 0.58284,-0.8161 0.88308,-1.2365 0.27508,-0.3019 0.55016,-0.6038 0.83357,-0.9149 0.46482,0 0.92964,0 1.40854,0 0.30503,-0.6055 0.30503,-0.6055 0.61623,-1.2233 0.7923,-1.4764 0.7923,-1.4764 2.20084,-3.5012 0.46481,0 0.92963,0 1.40853,0 0.15252,-0.3585 0.30503,-0.7169 0.46218,-1.0863 1.29736,-2.2119 3.03196,-3.9811 4.81983,-5.8318 0.35133,-0.3741 0.70266,-0.7482 1.06465,-1.1337 0.90506,-0.9441 1.85407,-1.8491 2.80882,-2.7472 0.46481,0 0.92963,0 1.40853,0 0.16705,-0.3793 0.33408,-0.7587 0.50619,-1.1495 1.10622,-1.9004 2.46209,-3.2238 4.07155,-4.7561 0.55923,-0.5395 1.11846,-1.0789 1.69464,-1.6347 1.47456,-1.2338 1.47456,-1.2338 2.88309,-1.2338 0,-0.4455 0,-0.8909 0,-1.3499 1.0344,-0.9992 1.0344,-0.9992 2.46494,-2.1513 2.58743,-2.1002 5.11906,-4.2481 7.6314,-6.4303 1.17194,-0.8675 1.17194,-0.8675 2.58048,-0.8675 0,-0.4454 0,-0.8909 0,-1.3498 1.45679,-1.1923 2.91989,-2.3107 4.44568,-3.4169 0.90387,-0.6653 1.80713,-1.3315 2.70978,-1.9984 0.45404,-0.3348 0.90807,-0.6695 1.37587,-1.0144 2.58543,-1.9357 5.08358,-3.9725 7.58978,-6.0013 1.48557,-1.0677 1.48557,-1.0677 2.8941,-1.0677 0,-0.4455 0,-0.8909 0,-1.3499 -0.56865,0.01 -1.1373,0.01 -1.72318,0.011 -2.56546,0.014 -5.13091,0.023 -7.69639,0.032 -0.89514,0.01 -1.79027,0.011 -2.71253,0.017 -0.85337,0 -1.70675,0.01 -2.58598,0.01 -0.78926,0.01 -1.57852,0.01 -2.39169,0.011 -1.90544,-0.077 -1.90544,-0.077 -3.31398,-0.7516 -1.85398,-0.1293 -3.69495,-0.2226 -5.5516,-0.29 -1.16073,-0.049 -2.32144,-0.097 -3.48214,-0.1464 -0.60959,-0.025 -1.21918,-0.05 -1.84724,-0.076 -10.66805,-0.444 -21.16162,-1.1636 -31.73407,-2.6441 -1.87739,-0.2338 -3.7512,-0.3876 -5.63827,-0.5321 -3.06776,-0.2517 -6.00097,-0.7316 -9.00932,-1.3469 -4.62381,-0.8883 -9.3147,-1.4576 -13.97977,-2.1109 -1.18815,-0.1703 -1.18815,-0.1703 -2.40029,-0.3441 -0.71861,-0.1009 -1.43723,-0.2019 -2.17762,-0.3059 -1.64908,-0.3031 -1.64908,-0.3031 -2.35335,-0.978 -1.43346,-0.2369 -2.87263,-0.4424 -4.31364,-0.6328 -3.38434,-0.475 -6.50992,-1.11 -9.7717,-2.0669 -1.40493,-0.2448 -2.81269,-0.4768 -4.22561,-0.675 0,-0.4454 0,-0.8909 0,-1.3498 -0.51838,-0.033 -1.03676,-0.066 -1.57084,-0.1002 -0.68724,-0.051 -1.37448,-0.101 -2.08254,-0.1529 -1.01725,-0.071 -1.01725,-0.071 -2.05503,-0.1424 -2.06099,-0.2826 -3.65252,-0.8524 -5.55986,-1.6293 -0.87153,-0.1671 -1.74307,-0.3341 -2.64101,-0.5062 -7.29701,-1.4692 -14.34309,-4.4043 -21.30408,-6.9181 0,-0.4455 0,-0.8909 0,-1.3499 -0.6945,-0.057 -1.38901,-0.1131 -2.10455,-0.1713 -3.19523,-0.4386 -5.76522,-1.7242 -8.59151,-3.1612 -0.4916,-0.2431 -0.9832,-0.4863 -1.4897,-0.7369 -0.93581,-0.4633 -1.87023,-0.9293 -2.80297,-1.3983 -1.33361,-0.669 -2.67666,-1.3181 -4.02649,-1.9566 0,-0.4454 0,-0.8909 0,-1.3498 -0.52292,-0.07 -1.04584,-0.1392 -1.5846,-0.2109 -2.07572,-0.4973 -3.19303,-1.1039 -4.7538,-2.4889 0,-0.4454 0,-0.8909 0,-1.3498 -0.40672,-0.072 -0.81343,-0.1445 -1.23247,-0.2188 -3.80169,-1.0943 -7.49017,-4.3593 -10.03581,-7.2055 0,-0.4455 0,-0.8909 0,-1.3499 -0.43577,-0.167 -0.87153,-0.3341 -1.3205,-0.5062 -1.76919,-0.9973 -2.03257,-1.8152 -2.90511,-3.5434 -0.69722,-0.2227 -1.39444,-0.4454 -2.1128,-0.6749 -4.97629,-5.1163 -8.55113,-11.7891 -11.26827,-18.2232 -0.29278,-0.6878 -0.29278,-0.6878 -0.59148,-1.3894 -4.93353,-12.0671 -4.79244,-27.1586 0.49416,-39.1314 4.8247,-10.3415 11.3793,-20.3649 19.8168,-28.3225 1.29977,-1.4303 2.57046,-2.8801 3.83771,-4.337 0.36041,-0.3506 0.72082,-0.7012 1.09216,-1.0624 0.46482,0 0.92963,0 1.40854,0 0.2324,-0.6682 0.46481,-1.3364 0.70426,-2.0248 1.15477,-0.9223 2.3319,-1.8189 3.52134,-2.6998 0.52292,-0.515 1.04584,-1.0301 1.5846,-1.5608 6.98126,-6.5384 6.98126,-6.5384 9.68368,-6.5384 0.2324,-0.6682 0.46481,-1.3364 0.70426,-2.0248 1.14718,-0.9359 1.14718,-0.9359 2.50896,-1.8139 0.67679,-0.4424 0.67679,-0.4424 1.36726,-0.8937 0.34771,-0.2201 0.69542,-0.4403 1.05365,-0.6671 -2.21544,-1.4154 -3.53159,-1.7008 -6.11832,-2.1091 -0.69995,-0.1131 -1.3999,-0.2263 -2.12105,-0.3428 -0.53473,-0.082 -1.06945,-0.1636 -1.62037,-0.2478 0,-0.4455 0,-0.8909 0,-1.3499 -0.91329,-0.064 -1.82658,-0.1287 -2.76755,-0.1951 -3.60166,-0.385 -6.66697,-1.4329 -9.99729,-2.7577 -0.53472,-0.2053 -1.06945,-0.4106 -1.62037,-0.6222 -3.20694,-1.2378 -6.38662,-2.5344 -9.55988,-3.8492 0,-0.4455 0,-0.891 0,-1.3499 -0.50203,-0.071 -1.00407,-0.1409 -1.52133,-0.2136 -5.77722,-1.3327 -11.0888,-5.5218 -15.90928,-8.7715 -0.43707,-0.2918 -0.87414,-0.5836 -1.32446,-0.8843 -1.0533,-0.7244 -2.0694,-1.4979 -3.07721,-2.2794 0,-0.4455 0,-0.8909 0,-1.3499 -0.43577,-0.2088 -0.87153,-0.4176 -1.3205,-0.6327 -0.96837,-0.4641 -1.93674,-0.9281 -2.9051,-1.3921 0,-0.4454 0,-0.8909 0,-1.3499 -0.42125,-0.1809 -0.84248,-0.3619 -1.27649,-0.5483 -1.53951,-0.801 -2.53595,-1.5412 -3.65339,-2.8263 0,-0.4455 0,-0.8909 0,-1.3499 -0.46481,0 -0.92963,0 -1.40853,0 -1.14169,-1.2338 -1.14169,-1.2338 -2.42092,-2.8685 -0.42033,-0.5324 -0.84066,-1.0649 -1.27374,-1.6135 -0.61143,-0.7882 -0.61143,-0.7882 -1.23521,-1.5924 -0.40036,-0.4837 -0.80072,-0.9674 -1.21321,-1.4659 -0.89959,-1.2338 -0.89959,-1.2338 -0.89959,-2.5837 -0.46482,0 -0.92964,0 -1.40854,0 -0.47473,-0.8551 -0.94302,-1.7135 -1.40853,-2.5732 -0.26146,-0.4776 -0.52292,-0.9553 -0.7923,-1.4474 -0.61624,-1.3789 -0.61624,-1.3789 -0.61624,-3.4037 -0.46481,0 -0.92963,0 -1.40853,0 -0.55812,-1.4902 -1.11556,-2.9807 -1.67264,-4.4714 -0.46572,-1.245 -0.46572,-1.245 -0.94086,-2.5152 -2.961,-8.0315 -4.80658,-15.5147 -5.13344,-24.0603 -0.029,-0.6273 -0.0581,-1.2546 -0.088,-1.9009 -0.1074,-4.5224 0.28101,-8.9961 0.70427,-13.4961 0.0552,-0.6047 0.11042,-1.2094 0.1673,-1.8325 0.34555,-3.4033 0.94897,-6.4945 2.03354,-9.7679 0.21607,-0.7717 0.43213,-1.5434 0.65475,-2.3385 1.11937,-3.9409 2.22993,-7.6371 4.28337,-11.2234 0.79112,-1.4625 1.37355,-2.9489 1.9725,-4.4925 2.23978,-5.4846 5.49224,-10.4955 9.15547,-15.2072 1.33258,-1.8484 2.40917,-3.8243 3.50483,-5.8081 0.88888,-1.4866 1.80452,-2.8219 2.96563,-4.126 0.46482,0 0.92963,0 1.40854,0 0.17521,-0.3681 0.35042,-0.7361 0.53094,-1.1153 1.05842,-1.911 2.31895,-3.592 3.65064,-5.3388 0.4857,-0.6412 0.9714,-1.2824 1.47181,-1.9431 1.10743,-1.3765 2.12002,-2.6309 3.50208,-3.7516 0.46482,0 0.92963,0 1.40853,0 0,-1.1137 0,-2.2273 0,-3.3747 -0.98047,-0.4594 -0.98047,-0.4594 -1.98075,-0.928 -2.24485,-1.0968 -2.24485,-1.0968 -4.35765,-2.4467 0,-0.4454 0,-0.8909 0,-1.3499 -0.77621,-0.2505 -0.77621,-0.2505 -1.56809,-0.5062 -7.37827,-3.1869 -12.34833,-11.7903 -16.03859,-18.3919 -0.28144,-0.489 -0.56287,-0.9779 -0.85283,-1.4817 -3.53627,-6.3877 -5.56432,-12.9225 -6.18985,-20.1162 -0.2324,-0.2227 -0.46481,-0.4454 -0.70426,-0.6749 -0.72242,-3.71025 -0.81104,-7.32755 -0.7923,-11.09415 -0.003,-0.5451 -0.006,-1.0902 -0.008,-1.6518 0.0159,-9.4498 0.0159,-9.4498 1.50482,-10.8767 0.31695,-2.19 0.57552,-4.3796 0.81843,-6.578 0.49046,-4.1194 1.60556,-7.9371 3.01102,-11.8561 0.54644,-1.5351 1.07071,-3.0572 1.50757,-4.6244 2.4823,-8.8751 6.9739,-17.1969 11.87076,-25.049 1.17168,-1.8107 1.17168,-1.8107 1.80743,-3.8624 0.46482,0 0.92964,0 1.40854,0 0.0735,-0.4829 0.14707,-0.9657 0.22283,-1.4632 0.53441,-2.1218 1.37229,-3.634 2.55022,-5.4971 0.3695,-0.5959 0.73899,-1.1919 1.11967,-1.8059 0.34226,-0.4481 0.68452,-0.8962 1.03715,-1.3578 0.46482,0 0.92963,0 1.40853,0 0.23241,-0.8909 0.46482,-1.7818 0.70427,-2.6998 0.46482,0 0.92963,0 1.40854,0 0.20335,-0.5011 0.40671,-1.0022 0.61623,-1.5186 0.66767,-1.564 1.38984,-3.0568 2.20084,-4.5558 0.46481,0 0.92963,0 1.40853,0 0.16432,-0.4759 0.32864,-0.9518 0.49794,-1.4421 1.08798,-2.309 2.49369,-3.9316 4.21185,-5.8556 0.31735,-0.3571 0.63469,-0.7143 0.96166,-1.0822 0.92201,-1.0351 1.85073,-2.0647 2.77976,-3.0939 0.42487,-0.4759 0.84974,-0.9518 1.28748,-1.4422 1.20012,-1.3316 2.41831,-2.6459 3.64239,-3.9573 0.49659,-0.5386 0.99318,-1.0771 1.50482,-1.632 4.20442,-4.4847 8.58355,-8.7993 13.01549,-13.0774 0.67814,-0.655 1.35516,-1.311 2.03104,-1.9681 0.9579,-0.93 1.92124,-1.8549 2.88477,-2.7796 0.56292,-0.5422 1.12584,-1.0845 1.70582,-1.6432 1.39461,-1.1725 1.39461,-1.1725 2.80315,-1.1725 0,-0.4455 0,-0.8909 0,-1.3499 1.26273,-1.0467 1.26273,-1.0467 2.94912,-2.2357 2.50765,-1.8128 4.71744,-3.7033 6.91062,-5.8635 3.27389,-2.6997 3.27389,-2.6997 4.92987,-2.6997 0.23241,-0.6682 0.46482,-1.3364 0.70427,-2.0248 1.55984,-1.2313 1.55984,-1.2313 3.47732,-2.4889 0.63095,-0.4202 1.2619,-0.8404 1.91197,-1.2734 1.65338,-0.9623 1.65338,-0.9623 3.06191,-0.9623 0.23241,-0.6682 0.46482,-1.3363 0.70427,-2.0248 1.15735,-0.7005 2.33285,-1.3739 3.52134,-2.0248 0.37766,-0.3758 0.75533,-0.7517 1.14443,-1.1389 0.96837,-0.8859 0.96837,-0.8859 3.08117,-0.8859 0.23241,-0.6682 0.46482,-1.3363 0.70427,-2.0248 1.58064,-1.117 3.13615,-2.1293 4.79782,-3.1216 0.66522,-0.4123 0.66522,-0.4123 1.34388,-0.8331 3.38294,-2.0547 3.38294,-2.0547 5.23301,-2.4133 0.42969,-0.1259 0.85938,-0.2517 1.3021,-0.3813 0.23241,-0.6682 0.46482,-1.3364 0.70427,-2.0248 2.05702,-1.4007 3.0815,-2.0248 5.63414,-2.0248 0,-0.4455 0,-0.8909 0,-1.3499 1.4663,-0.9702 1.4663,-0.9702 3.38928,-2.0248 1.96417,-1.0865 3.87811,-2.1684 5.76619,-3.3747 0.69723,0 1.39445,0 2.1128,0 0,-0.4454 0,-0.8909 0,-1.3498 0.66454,-0.3067 0.66454,-0.3067 1.34251,-0.6196 2.83476,-1.32973 5.61577,-2.64979 8.25314,-4.31591 3.16047,-1.95016 6.52355,-3.49881 9.89086,-5.08672 3.2414,-1.53199 6.43347,-3.13009 9.60854,-4.78419 4.11616,-2.12662 8.28707,-4.1312 12.50074,-6.07441 0.56179,-0.26313 1.12357,-0.52626 1.70238,-0.79736 2.94569,-1.342 5.5294,-2.30185 8.81761,-2.61949 0,-0.44546 0,-0.89091 0,-1.34987 5.93597,-2.21764 5.93597,-2.21764 9.15548,-2.69973 0,-0.44546 0,-0.89092 0,-1.34987 1.21623,-0.41138 2.43247,-0.82274 3.64874,-1.23403 1.07291,-0.36298 2.14569,-0.72627 3.21838,-1.08984 2.75388,-0.93293 5.50911,-1.86154 8.26912,-2.77768 4.4573,-1.48446 8.87244,-2.98294 13.21052,-4.76936 3.61335,-1.48476 7.27516,-2.58717 11.04269,-3.65413 1.89406,-0.56811 3.68218,-1.215 5.50759,-1.95626 3.68589,-1.46844 7.47546,-2.50501 11.30833,-3.55427 2.70428,-0.74064 5.36671,-1.52381 8.015,-2.43577 2.49083,-0.74352 4.32704,-0.99194 6.91062,-0.80148 0,-0.44546 0,-0.89091 0,-1.34987 0.40854,-0.0818 0.81706,-0.16356 1.23797,-0.24783 3.18926,-0.65566 6.24131,-1.42364 9.32604,-2.4519 4.62473,-1.35073 9.32872,-2.34789 14.04133,-3.37467 6.22192,-1.34996 6.22192,-1.34996 12.41821,-2.80256 2.4399,-0.57791 4.85968,-0.90674 7.34529,-1.24705 0.23241,-0.22272 0.46482,-0.44545 0.70427,-0.67493 2.15443,-0.30296 4.30824,-0.55171 6.47183,-0.78435 2.93701,-0.34176 5.53125,-0.98522 8.31778,-1.91539 1.0074,-0.15899 2.02042,-0.29072 3.03716,-0.37965 2.45362,-0.0186 2.45362,-0.0186 3.30125,-0.97021 1.62432,-0.2519 3.25412,-0.47173 4.88585,-0.67494 3.2999,-0.32472 3.2999,-0.32472 6.38243,-1.34986 1.83431,-0.23638 3.66231,-0.44491 5.50208,-0.63276 3.64125,-0.38789 7.25725,-0.8139 10.87213,-1.39205 4.87207,-0.75635 9.77267,-1.15797 14.68847,-1.55419 0.618,-0.0518 1.2361,-0.10353 1.8728,-0.15686 0.5576,-0.0444 1.1153,-0.0889 1.6898,-0.13463 1.3027,-0.0544 1.3027,-0.0544 1.9966,-0.85405 7.5442,-0.82457 15.2021,-0.84023 22.7864,-0.87415 z m 164.54873,152.05931 c -1.1839,0.099 -2.372,0.1537 -3.5599,0.1899 -0.759,0.025 -1.5181,0.05 -2.3002,0.075 -1.2391,0.036 -1.2391,0.036 -2.5031,0.072 -0.8414,0.027 -1.6829,0.055 -2.5498,0.083 -3.6181,0.1178 -7.2364,0.2279 -10.8546,0.3388 -2.6334,0.082 -5.2665,0.1674 -7.8997,0.2531 -1.239,0.036 -1.239,0.036 -2.5031,0.072 -0.759,0.025 -1.5182,0.05 -2.3002,0.075 -0.6719,0.02 -1.3439,0.041 -2.0361,0.062 -1.5089,-0.031 -1.5089,-0.031 -2.228,0.8028 -1.4924,0.1466 -2.9895,0.2509 -4.487,0.3375 -1.3692,0.083 -1.3692,0.083 -2.7661,0.1687 -0.9716,0.057 -1.9432,0.1129 -2.9148,0.1688 -1.892,0.1091 -3.7837,0.2222 -5.6754,0.3374 -0.8438,0.049 -1.6875,0.098 -2.5569,0.1477 -1.9817,0.069 -1.9817,0.069 -3.4321,0.8647 -1.0383,0.1323 -2.0812,0.232 -3.1252,0.3138 -0.9464,0.079 -0.9464,0.079 -1.912,0.1595 -1.3149,0.1046 -2.6299,0.2083 -3.9449,0.3111 -3.813,0.3197 -7.4951,0.8203 -11.2338,1.6123 -1.7268,0.3238 -3.4292,0.498 -5.1817,0.6405 -2.2014,0.1862 -4.2789,0.4731 -6.4265,0.9703 -3.86202,0.892 -7.78983,1.2961 -11.72773,1.7532 -2.1499,0.1897 -2.1499,0.1897 -3.6341,0.9887 -2.5721,0.3177 -5.1444,0.5866 -7.7236,0.8436 -2.7005,0.056 -2.7005,0.056 -4.9532,1.1812 -2.5468,0.3905 -5.101,0.6961 -7.6589,1.0124 -2.1021,0.1108 -2.1021,0.1108 -2.9051,1.0124 -2.2255,0.3678 -4.4589,0.6518 -6.6961,0.9465 -2.4416,0.3547 -2.4416,0.3547 -4.6898,1.0244 -2.952,0.797 -5.9076,1.4093 -8.9113,1.9943 -1.1876,0.2355 -2.3751,0.471 -3.5626,0.7066 -1.8527,0.3654 -3.7056,0.7298 -5.5589,1.0928 -1.8019,0.3537 -3.603,0.7112 -5.404,1.0691 -0.5518,0.1069 -1.1035,0.2138 -1.672,0.3239 -2.7674,0.552 -5.2579,1.2421 -7.8742,2.2914 -1.6433,0.225 -3.2866,0.45 -4.9298,0.675 -0.5811,0.2227 -1.1621,0.4454 -1.7607,0.6749 -2.2011,0.8438 -4.3486,1.0293 -6.6905,1.3499 -1.1838,0.4254 -2.3579,0.876 -3.5214,1.3499 -2.7968,0.8205 -5.6127,1.5184 -8.4512,2.1935 -1.6435,0.3928 -3.2868,0.7866 -4.92987,1.1811 -0.61211,0.1465 -1.22422,0.293 -1.85489,0.4439 -2.11209,0.5079 -4.22222,1.0229 -6.33221,1.5387 -0.67998,0.1625 -1.35996,0.325 -2.06053,0.4924 -3.93472,0.9684 -7.64266,2.1366 -11.37317,3.6823 -2.27131,0.8301 -4.56508,1.2328 -6.95704,1.6097 -2.04961,0.3992 -3.95037,1.037 -5.93125,1.6821 -1.12005,0.3613 -1.12005,0.3613 -2.26274,0.73 -0.80026,0.2585 -1.60053,0.517 -2.42504,0.7833 -1.37197,0.4416 -2.74408,0.8828 -4.11625,1.3239 -0.92874,0.2989 -1.85723,0.5986 -2.78544,0.899 -5.71391,1.8487 -11.42487,3.5708 -17.25128,5.0709 -2.68571,0.803 -5.06753,1.9244 -7.5143,3.2415 -2.1405,0.9903 -4.31461,1.5192 -6.60526,2.125 -1.91847,0.6031 -3.82038,1.2487 -5.72217,1.8983 -0.52212,0.1778 -1.04425,0.3557 -1.58219,0.539 -5.96612,2.043 -11.90929,4.1023 -17.65311,6.6743 -3.66328,1.6333 -7.41407,2.8982 -11.22701,4.1709 -3.43552,1.2005 -6.77186,2.5873 -10.12109,3.9916 -1.98222,0.822 -3.97275,1.5934 -5.98627,2.3412 -2.94378,1.1119 -5.72693,2.4371 -8.542,3.8176 -2.63442,1.2341 -5.34125,2.2758 -8.05506,3.3377 -3.84827,1.5476 -7.61989,3.2521 -11.39757,4.9513 0,0.4455 0,0.8909 0,1.3499 -0.59282,0.063 -1.18565,0.127 -1.79643,0.1924 -2.75522,0.5473 -5.02124,1.5642 -7.49109,2.8026 -0.48286,0.2366 -0.96572,0.4732 -1.46322,0.7169 -4.42802,2.179 -8.82871,4.4101 -13.22581,6.6457 -3.4245,1.7382 -6.87426,3.41035 -10.35648,5.03925 -3.39726,1.6109 -6.30022,3.3615 -9.33154,5.526 -3.43266,1.9598 -6.97258,3.7227 -10.56401,5.3995 0,0.4454 0,0.8909 0,1.3499 -0.39979,0.074 -0.79958,0.1479 -1.21149,0.2241 -1.83314,0.5147 -3.15333,1.2737 -4.75827,2.2647 -0.58829,0.3602 -1.17657,0.7204 -1.78268,1.0915 -0.91239,0.5664 -0.91239,0.5664 -1.8432,1.1442 -1.21199,0.7457 -2.42427,1.491 -3.63688,2.2357 -0.53529,0.3315 -1.07058,0.663 -1.62209,1.0045 -1.34354,0.8094 -1.34354,0.8094 -2.75207,1.4843 0,0.4455 0,0.8909 0,1.3499 -0.74489,0.2623 -0.74489,0.2623 -1.50482,0.5299 -2.17816,0.8857 -4.10188,1.942 -6.11007,3.1401 -0.68724,0.4028 -1.37448,0.8056 -2.08254,1.2206 -0.77757,0.586 -0.77757,0.586 -1.57085,1.1838 0,0.6682 0,1.3364 0,2.0248 0.50833,0.037 1.01667,0.075 1.54041,0.1132 2.2892,0.17 4.57798,0.3447 6.86678,0.5196 1.2004,0.088 1.2004,0.088 2.42505,0.1779 1.14047,0.088 1.14047,0.088 2.30399,0.178 0.70443,0.053 1.40887,0.106 2.13465,0.1606 1.63154,0.2006 1.63154,0.2006 2.3358,0.8755 1.44926,0.1464 2.90318,0.2508 4.35766,0.3375 0.88424,0.056 1.76848,0.1113 2.67952,0.1687 0.94083,0.057 1.88169,0.1128 2.82257,0.1687 1.83432,0.109 3.66818,0.222 5.50208,0.3375 0.81797,0.049 1.63594,0.097 2.47869,0.1476 1.87897,0.1899 1.87897,0.1899 2.58323,0.8648 2.05435,0.1707 4.08942,0.2893 6.14859,0.3744 0.67709,0.028 1.35419,0.057 2.05179,0.086 10.58611,0.3892 21.18454,0.3178 31.77659,0.3015 1.80959,0 3.61919,0 5.42878,0 14.02024,-0.01 28.03869,-0.047 42.05545,-0.3771 0.58991,-0.013 1.17982,-0.026 1.7876,-0.04 5.55112,0.1974 5.55112,0.1974 10.75716,-1.0145 1.0814,-0.096 2.16662,-0.1526 3.25191,-0.1899 1.01163,-0.037 1.01163,-0.037 2.04369,-0.075 0.72996,-0.024 1.45992,-0.048 2.212,-0.072 0.74667,-0.027 1.49334,-0.055 2.26264,-0.083 3.20511,-0.1175 6.41048,-0.2279 9.61585,-0.3387 2.335,-0.082 4.66983,-0.1674 7.00467,-0.2531 0.73139,-0.024 1.46278,-0.048 2.21632,-0.072 1.0083,-0.037 1.0083,-0.037 2.03697,-0.075 0.59473,-0.02 1.18946,-0.041 1.80221,-0.062 1.36289,0.011 1.36289,0.011 2.06284,-0.8028 1.96113,-0.1481 3.90898,-0.2561 5.87347,-0.3375 0.58968,-0.027 1.17936,-0.055 1.78691,-0.083 1.89209,-0.088 3.78434,-0.1715 5.67668,-0.2544 2.48621,-0.109 4.97218,-0.222 7.45808,-0.3374 0.57591,-0.024 1.15182,-0.048 1.74518,-0.072 2.90914,-0.074 2.90914,-0.074 5.63037,-0.9399 1.40466,-0.1425 2.81337,-0.249 4.22285,-0.3375 0.84385,-0.056 1.68768,-0.1114 2.5571,-0.1687 0.8856,-0.056 1.7712,-0.1114 2.68364,-0.1688 1.74525,-0.11 3.49034,-0.2224 5.23524,-0.3374 0.7766,-0.049 1.55321,-0.097 2.35335,-0.1477 2.02038,-0.1259 2.02038,-0.1259 4.07584,-0.8647 1.1196,-0.1359 2.24282,-0.2455 3.36728,-0.3375 0.65092,-0.056 1.30184,-0.1114 1.97249,-0.1687 1.37002,-0.1125 2.74004,-0.225 4.11007,-0.3375 0.65092,-0.056 1.30184,-0.1114 1.97249,-0.1687 0.5951,-0.049 1.19019,-0.098 1.80331,-0.1477 1.68295,-0.1549 1.68295,-0.1549 3.67677,-0.8647 1.29214,-0.138 2.58781,-0.2466 3.88447,-0.3375 0.7653,-0.056 1.5306,-0.1114 2.3191,-0.1687 0.7999,-0.056 1.5997,-0.1114 2.4237,-0.1688 5.9238,-0.3809 5.9238,-0.3809 11.8157,-1.0546 1.7657,-0.249 3.3543,-0.3498 5.1307,-0.2953 2.4724,0.1856 2.4724,0.1856 4.0056,-0.6749 1.0611,-0.1397 2.1269,-0.2476 3.1939,-0.3375 0.6278,-0.056 1.2556,-0.1113 1.9024,-0.1687 1.3296,-0.1127 2.6593,-0.2252 3.989,-0.3375 0.6269,-0.056 1.2537,-0.1113 1.8996,-0.1687 0.5774,-0.049 1.1549,-0.097 1.7498,-0.1476 1.354,-0.059 1.354,-0.059 2.0549,-0.8648 1.2434,-0.1457 2.492,-0.2505 3.7414,-0.3375 0.7571,-0.056 1.5143,-0.1113 2.2944,-0.1687 1.6102,-0.1125 3.2205,-0.225 4.8308,-0.3375 0.7571,-0.056 1.5143,-0.1113 2.2944,-0.1687 0.6999,-0.049 1.3999,-0.097 2.121,-0.1476 1.5928,-0.025 1.5928,-0.025 2.3247,-0.8648 2.0986,-0.2536 4.1899,-0.4771 6.2943,-0.6749 1.1658,-0.1101 2.3314,-0.2225 3.4966,-0.3375 0.5193,-0.049 1.0385,-0.097 1.5734,-0.1476 1.3741,-0.1326 1.3741,-0.1326 2.721,-0.8648 1.0014,-0.1392 2.0076,-0.2473 3.0151,-0.3375 0.5929,-0.056 1.1857,-0.1113 1.7965,-0.1687 1.2526,-0.1125 2.5053,-0.225 3.7579,-0.3375 0.5928,-0.056 1.1856,-0.1113 1.7964,-0.1687 0.5443,-0.049 1.0885,-0.097 1.6493,-0.1476 1.4199,-0.1274 1.4199,-0.1274 2.7744,-0.8648 1.7608,-0.2346 3.516,-0.4431 5.282,-0.6327 3.767,-0.4254 7.4497,-0.954 11.1583,-1.7269 3.40811,-0.6196 6.85991,-0.9774 10.30263,-1.3763 2.0419,-0.094 2.0419,-0.094 2.8363,-0.9886 0.9424,-0.152 1.8915,-0.2657 2.8418,-0.3612 0.8546,-0.088 0.8546,-0.088 1.7263,-0.178 0.8981,-0.088 0.8981,-0.088 1.8144,-0.1779 0.9021,-0.092 0.9021,-0.092 1.8225,-0.1859 1.4903,-0.1516 2.9811,-0.2996 4.4719,-0.4469 0,-0.4455 0,-0.8909 0,-1.3499 0.7562,-0.033 1.5124,-0.066 2.2916,-0.1002 1.0114,-0.051 2.0229,-0.1016 3.0344,-0.1529 0.7442,-0.031 0.7442,-0.031 1.5034,-0.063 3.3055,-0.1752 6.1871,-0.7697 9.3687,-1.7084 0.9349,-0.1408 1.8742,-0.2596 2.8171,-0.3375 2.6913,-0.2816 5.1456,-0.9566 7.7469,-1.6873 0.9953,-0.2087 1.9934,-0.4052 2.9932,-0.5932 0.9319,-0.1756 0.9319,-0.1756 1.8827,-0.3548 4.8764,-0.9045 9.754,-1.8029 14.6332,-2.6936 5.0352,-0.9199 10.0358,-1.8786 15,-3.10775 0.8425,-0.1113 1.685,-0.2227 2.553,-0.3374 2.3641,-0.2683 2.3641,-0.2683 4.4897,-1.0124 2.3438,-0.7488 4.6003,-1.0155 7.0427,-1.3499 0.6972,-0.2227 1.3944,-0.4455 2.1128,-0.6749 2.3438,-0.7488 4.6002,-1.0155 7.0426,-1.3499 0.6282,-0.2027 1.2565,-0.4054 1.9037,-0.6143 3.1624,-1.0018 6.3783,-1.6672 9.626,-2.3636 3.3493,-0.7338 6.6278,-1.6077 9.913,-2.571 2.9804,-0.871 5.9769,-1.688 8.9729,-2.5081 0.6402,-0.1756 1.2805,-0.3512 1.9402,-0.5321 4.5946,-1.2544 9.2018,-2.4489 13.8288,-3.5887 2.954,-0.7918 5.8454,-1.7232 8.7483,-2.6708 1.0232,-0.33 2.0466,-0.6595 3.0702,-0.9886 0.5053,-0.1626 1.0106,-0.3252 1.5313,-0.4927 5.7197,-1.8368 11.453,-3.6049 17.2308,-5.268 0,-0.4455 0,-0.8909 0,-1.3499 0.6972,-0.07 1.3944,-0.1392 2.1128,-0.2109 3.0164,-0.402 5.634,-1.3994 8.4512,-2.4888 0,-0.4455 0,-0.8909 0,-1.3499 0.6055,-0.072 1.211,-0.1444 1.8349,-0.2188 2.5368,-0.484 4.5103,-1.2792 6.8364,-2.3544 0.7916,-0.361 1.5832,-0.7221 2.3989,-1.0941 0.7625,-0.3489 1.5252,-0.6977 2.3109,-1.0572 1.2448,-0.5392 2.4917,-1.0742 3.7414,-1.603 0.5056,-0.214 1.0113,-0.428 1.5323,-0.6485 0.3513,-0.1479 0.7027,-0.2959 1.0647,-0.4482 0,-0.4455 0,-0.891 0,-1.3499 2.0916,-0.3341 2.0916,-0.3341 4.2256,-0.6749 0,-0.4455 0,-0.891 0,-1.3499 0.5211,-0.075 1.0421,-0.1497 1.5791,-0.2267 2.0255,-0.4675 3.1619,-1.0715 4.8473,-2.2199 3.1627,-2.1161 6.4144,-4.0569 9.7084,-5.9795 0.4857,-0.3376 0.9714,-0.6752 1.4719,-1.023 0,-0.4454 0,-0.8909 0,-1.3498 0.4212,-0.181 0.8424,-0.362 1.2764,-0.5484 1.5396,-0.801 2.536,-1.5412 3.6534,-2.8263 0,-0.4455 0,-0.8909 0,-1.3499 1.0459,-0.3341 1.0459,-0.3341 2.1128,-0.6749 2.0321,-2.4786 3.0856,-5.2433 2.9932,-8.3945 -0.6707,-3.8903 -3.4282,-6.6954 -6.5145,-9.1538 -1.5117,-0.5302 -1.5117,-0.5302 -2.8171,-0.6749 0,-0.4455 0,-0.8909 0,-1.3499 -3.2799,-1.5894 -6.5661,-3.1657 -9.8604,-4.7275 -1.1253,-0.5371 -2.2443,-1.0863 -3.3611,-1.6396 -5.965,-2.8213 -12.4004,-4.3349 -18.7965,-5.9916 -1.5929,-0.4146 -3.1815,-0.8413 -4.769,-1.2744 -4.9673,-1.3284 -9.8535,-2.3288 -14.9684,-2.974 -1.7689,-0.2663 -1.7689,-0.2663 -3.1774,-0.9412 -0.9583,-0.1386 -1.9214,-0.2469 -2.8859,-0.3375 -0.5642,-0.056 -1.1284,-0.1113 -1.7098,-0.1687 -1.1939,-0.1127 -2.3878,-0.2252 -3.5818,-0.3375 -4.4279,-0.4376 -4.4279,-0.4376 -5.2036,-1.1811 -1.1322,-0.1452 -2.2699,-0.2503 -3.4086,-0.3375 -0.6904,-0.056 -1.3808,-0.1113 -2.0922,-0.1687 -0.7267,-0.056 -1.4534,-0.1114 -2.2021,-0.1687 -1.4299,-0.11 -2.8595,-0.2224 -4.2889,-0.3375 -0.6373,-0.049 -1.2745,-0.097 -1.9311,-0.1476 -1.571,-0.1899 -1.571,-0.1899 -2.9795,-0.8648 -1.0599,-0.095 -2.1235,-0.1525 -3.1873,-0.1898 -0.9905,-0.037 -0.9905,-0.037 -2.001,-0.075 -0.7145,-0.024 -1.4291,-0.048 -2.1653,-0.072 -0.731,-0.027 -1.4621,-0.055 -2.2152,-0.083 -3.1378,-0.1176 -6.2759,-0.2279 -9.414,-0.3388 -2.286,-0.082 -4.5719,-0.1673 -6.8578,-0.2531 -0.716,-0.024 -1.432,-0.048 -2.1696,-0.072 -0.9872,-0.037 -0.9872,-0.037 -1.9943,-0.075 -0.5822,-0.02 -1.1644,-0.041 -1.7642,-0.062 -1.3319,-0.1279 -1.3319,-0.1279 -2.0362,-0.8028 -1.4512,-0.067 -2.9047,-0.088 -4.3576,-0.09 -1.3264,0 -1.3264,0 -2.6795,0 -0.6942,0 -0.6942,0 -1.4024,0 -1.4143,0 -2.8284,10e-5 -4.2428,0 -0.8842,6e-4 -1.7684,0 -2.6795,0 -0.818,6e-4 -1.6359,0 -2.4787,0 -1.8231,-0.1174 -1.8231,-0.1174 -2.5832,0.7623 z m 22.3605,202.10045 c -1.2373,0.04 -1.2373,0.04 -2.4995,0.08 -3.712,-0.01 -3.712,-0.01 -7.1842,0.9745 -1.8894,0.1448 -3.7663,0.2544 -5.6589,0.3375 -0.5591,0.028 -1.1182,0.055 -1.6942,0.083 -2.3973,0.1175 -4.7949,0.228 -7.1925,0.3388 -1.7478,0.082 -3.4952,0.1673 -5.2427,0.2531 -0.5465,0.024 -1.093,0.048 -1.6561,0.072 -2.5184,-0.087 -2.5184,-0.087 -4.6135,0.9399 -1.3318,0.1383 -2.6684,0.2348 -4.0055,0.3137 -0.8271,0.053 -1.6541,0.1053 -2.5062,0.1596 -1.7404,0.105 -3.4809,0.2086 -5.2215,0.311 -4.1858,0.2684 -8.1538,0.6484 -12.2257,1.619 -2.2117,0.4701 -4.4182,0.5414 -6.6767,0.6339 -3.4825,0.1859 -6.6673,0.5395 -10.0358,1.371 -2.6381,0.5266 -5.3108,0.6214 -7.9973,0.7593 -2.0652,0.1663 -2.0652,0.1663 -4.0441,0.8858 -2.6542,0.8322 -5.2673,1.1109 -8.0302,1.371 -3.9484,0.4053 -7.8035,0.9139 -11.6865,1.7295 -1.5747,0.3062 -3.1355,0.5025 -4.7318,0.6749 -2.298,0.04 -2.298,0.04 -3.12522,0.9702 -2.0109,0.2703 -4.01241,0.5074 -6.03031,0.7171 -0.5678,0.062 -1.1357,0.1228 -1.7207,0.1859 -1.4069,0.1516 -2.8142,0.2996 -4.2215,0.4469 0,0.4455 0,0.8909 0,1.3499 -0.828,-0.028 -1.6559,-0.055 -2.509,-0.084 -2.9065,0 -5.2581,0.6433 -8.055,1.4342 -1.2741,0.1978 -2.5511,0.3783 -3.8295,0.5484 -4.6367,0.6436 -9.1957,1.5533 -13.7772,2.4888 -5.8512,1.193 -11.6721,2.293 -17.6067,3.0372 0,0.4455 0,0.891 0,1.3499 -0.561,0.033 -1.1221,0.066 -1.7001,0.1002 -3.8983,0.2636 -7.2938,0.6113 -10.9767,1.9246 -0.8425,0.1114 -1.685,0.2227 -2.553,0.3375 -2.2742,0.1974 -2.2742,0.1974 -3.7414,1.0124 -1.8472,0.8583 -3.6502,0.9589 -5.6726,1.1627 -1.979,0.2619 -3.7599,0.899 -5.6397,1.537 -5.5868,1.3831 -11.2098,2.6309 -16.824,3.9073 -4.8924,1.1191 -9.70892,2.3514 -14.51587,3.7701 -3.96024,1.1467 -7.95872,2.1461 -11.96154,3.1453 -1.51295,0.3979 -3.01844,0.8252 -4.50621,1.3024 -3.39984,1.082 -6.86392,1.937 -10.32467,2.821 -0.5438,0.1419 -1.0876,0.2837 -1.64787,0.4298 -0.48945,0.1257 -0.97889,0.2514 -1.48316,0.3809 -1.45169,0.4145 -1.45169,0.4145 -2.86315,1.1416 -1.81701,0.8617 -3.59936,1.0639 -5.59597,1.3248 0,0.4455 0,0.8909 0,1.3499 -0.79891,0.07 -1.59781,0.1392 -2.42092,0.2109 -5.69036,0.696 -10.90776,2.9879 -16.21741,4.9698 -2.61574,0.9389 -5.24915,1.7922 -7.90374,2.6232 -3.51435,1.1012 -6.95649,2.299 -10.37419,3.6515 -2.1999,0.8389 -4.42617,1.5874 -6.66028,2.3386 -3.72494,1.2626 -7.35999,2.6464 -10.99317,4.1313 -2.58371,1.0152 -5.18845,1.9577 -7.80386,2.8946 -6.84673,2.4543 -13.44366,5.1574 -20.0257,8.2023 -2.10479,0.9177 -4.22094,1.8092 -6.33841,2.6997 -1.18867,0.5057 -2.37713,1.0119 -3.56535,1.5186 -0.92435,0.3937 -1.8487,0.7874 -2.77305,1.1811 0,0.4455 0,0.8909 0,1.3499 10.32767,-0.2487 20.65525,-0.5008 30.98273,-0.757 4.79521,-0.1189 9.59045,-0.2367 14.38576,-0.3518 4.62582,-0.111 9.25155,-0.2252 13.87723,-0.3414 1.76675,-0.044 3.53353,-0.087 5.30033,-0.1283 2.4704,-0.059 4.94067,-0.1207 7.41094,-0.1838 1.10104,-0.025 1.10104,-0.025 2.22432,-0.05 0.67349,-0.018 1.34698,-0.036 2.04087,-0.055 0.58428,-0.014 1.16854,-0.028 1.77052,-0.043 1.548,-0.1117 2.91181,-0.4021 4.40657,-0.7896 1.06689,-0.089 2.13655,-0.1503 3.20668,-0.1898 0.62975,-0.025 1.25948,-0.049 1.90831,-0.075 0.67426,-0.024 1.34853,-0.048 2.04322,-0.073 0.69612,-0.028 1.39223,-0.055 2.10943,-0.083 2.97736,-0.1173 5.95496,-0.228 8.93258,-0.3388 2.17367,-0.082 4.34716,-0.1674 6.52066,-0.2531 0.67712,-0.024 1.35424,-0.048 2.05187,-0.072 0.6253,-0.025 1.2506,-0.049 1.89485,-0.075 0.55138,-0.02 1.10276,-0.041 1.67085,-0.062 1.41202,-0.055 1.41202,-0.055 2.76211,-0.8029 1.7539,-0.1446 3.49449,-0.2543 5.25174,-0.3374 0.52115,-0.028 1.04229,-0.055 1.57923,-0.083 1.66969,-0.088 3.33957,-0.1714 5.00953,-0.2544 1.6624,-0.083 3.32472,-0.1673 4.9869,-0.2545 1.03455,-0.054 2.06924,-0.1061 3.10406,-0.1555 2.58005,-0.1348 5.00834,-0.4462 7.53493,-0.9399 1.6242,-0.127 3.2505,-0.2291 4.8776,-0.3137 0.957,-0.052 1.914,-0.1045 2.8709,-0.1569 0.7436,-0.04 0.7436,-0.04 1.5023,-0.08 2.5767,-0.1382 5.1528,-0.2865 7.7287,-0.4381 0.9276,-0.053 1.8552,-0.1061 2.8109,-0.1607 3.2966,-0.2407 6.5555,-0.6351 9.8311,-1.0565 3.2248,-0.4057 6.4339,-0.6674 9.68,-0.8551 0.4925,-0.03 0.9851,-0.059 1.4927,-0.089 2.5304,-0.1511 5.0613,-0.2926 7.5927,-0.4287 0.9246,-0.052 1.8492,-0.1035 2.8018,-0.1569 1.2589,-0.067 1.2589,-0.067 2.5432,-0.1346 1.8448,0.022 1.8448,0.022 2.6095,-0.854 1.1919,-0.1455 2.3893,-0.2504 3.5874,-0.3375 0.7253,-0.055 1.4507,-0.1114 2.1981,-0.1687 1.5424,-0.1125 3.0848,-0.225 4.6272,-0.3375 0.7254,-0.055 1.4508,-0.1114 2.1981,-0.1687 1.0057,-0.073 1.0057,-0.073 2.0316,-0.1476 1.5356,-0.033 1.5356,-0.033 2.26,-0.8648 1.3464,-0.1461 2.6977,-0.2507 4.0496,-0.3375 0.8207,-0.055 1.6414,-0.1114 2.4869,-0.1687 1.746,-0.1125 3.492,-0.225 5.238,-0.3375 0.8207,-0.055 1.6414,-0.1114 2.4869,-0.1687 0.759,-0.049 1.518,-0.097 2.2999,-0.1476 1.7071,-0.01 1.7071,-0.01 2.454,-0.8648 1.0291,-0.1447 2.0643,-0.2501 3.1004,-0.3375 0.6268,-0.055 1.2537,-0.1114 1.8996,-0.1687 0.6595,-0.055 1.3191,-0.1114 1.9986,-0.1688 1.2978,-0.11 2.5954,-0.2223 3.8927,-0.3374 0.8674,-0.073 0.8674,-0.073 1.7523,-0.1476 1.48481,-0.1202 1.48481,-0.1202 2.85021,-0.8648 2.5172,-0.2994 5.03442,-0.5476 7.55852,-0.7844 3.6395,-0.3602 7.2036,-0.9038 10.7988,-1.5527 3.7574,-0.6594 7.5343,-1.2008 11.31,-1.7547 0.7853,-0.117 1.5706,-0.2341 2.3797,-0.3546 3.4207,-0.5039 6.8325,-0.9864 10.2751,-1.3301 2.7192,-0.2167 2.7192,-0.2167 5.128,-0.9729 3.4055,-0.9003 6.7849,-1.1183 10.2999,-1.3498 0,-0.4455 0,-0.8909 0,-1.3499 0.7644,-0.033 1.5288,-0.066 2.3163,-0.1002 1.0179,-0.051 2.0358,-0.1017 3.0537,-0.1529 0.502,-0.021 1.0041,-0.042 1.5213,-0.063 3.1207,-0.1647 5.6348,-0.7127 8.6025,-1.7085 2.3349,-0.5112 4.6898,-0.9223 7.0427,-1.3499 3.0965,-0.5826 6.1919,-1.17 9.2873,-1.7578 0.9428,-0.1787 1.8858,-0.3566 2.8288,-0.5339 1.3858,-0.2607 2.7711,-0.5242 4.1563,-0.7877 0.8146,-0.154 1.629,-0.3079 2.4682,-0.4666 1.6783,-0.354 3.344,-0.7655 4.9963,-1.2181 2.321,-0.6353 2.321,-0.6353 4.874,-0.9728 2.3177,-0.2393 2.3177,-0.2393 4.1375,-1.0124 2.2011,-0.8437 4.3487,-1.0293 6.6906,-1.3499 1.1836,-0.4254 2.3578,-0.876 3.5213,-1.3498 3.2085,-0.9462 6.4241,-1.6833 9.7112,-2.3201 1.5832,-0.3495 1.5832,-0.3495 3.1279,-0.994 2.6369,-0.9944 5.3356,-1.6728 8.0689,-2.3807 1.139,-0.3001 2.2779,-0.6008 3.4167,-0.9016 0.816,-0.2151 0.816,-0.2151 1.6486,-0.4344 4.5326,-1.1945 8.7709,-2.4734 13.0338,-4.3746 2.3309,-0.9416 4.7176,-1.6859 7.1224,-2.4308 4.0012,-1.2444 7.8175,-2.6674 11.6204,-4.3871 0.9533,-0.3946 1.9071,-0.7883 2.8611,-1.1811 8.1857,-3.5109 15.8605,-7.3506 23.1968,-12.3175 1.0459,-0.6682 1.0459,-0.6682 2.1128,-1.3499 0,-0.4455 0,-0.8909 0,-1.3499 0.6973,-0.2227 1.3945,-0.4454 2.1128,-0.6749 0,-0.4455 0,-0.8909 0,-1.3499 1.0459,-0.3341 1.0459,-0.3341 2.1128,-0.6749 -1.5294,-2.1986 -1.647,-2.2894 -4.1403,-2.7894 -0.5325,-0.1122 -1.0649,-0.2245 -1.6135,-0.3401 -0.556,-0.1087 -1.1121,-0.2175 -1.685,-0.3295 -5.8714,-1.1976 -5.8714,-1.1976 -6.6465,-1.9405 -1.6391,-0.2513 -3.2836,-0.4714 -4.9299,-0.6749 -4.8516,-0.6 -4.8516,-0.6 -5.6341,-1.3499 -1.2434,-0.1456 -2.4921,-0.2505 -3.7414,-0.3375 -0.7572,-0.055 -1.5144,-0.1113 -2.2944,-0.1687 -0.7971,-0.055 -1.5942,-0.1113 -2.4154,-0.1687 -1.5702,-0.1097 -3.1401,-0.2221 -4.7098,-0.3375 -1.0499,-0.073 -1.0499,-0.073 -2.1211,-0.1476 -1.6203,-0.1899 -1.6203,-0.1899 -2.3246,-0.8648 -17.4855,-1.5801 -35.4623,-0.9529 -52.9961,-0.3796 z m -30.5036,185.2272 c -0.4861,0.026 -0.9722,0.053 -1.473,0.08 -5.0398,0.2794 -9.9258,0.6598 -14.8567,1.7129 -2.6333,0.5251 -5.293,0.745 -7.9675,0.991 -3.7316,0.3721 -7.3837,0.7639 -11.029,1.6425 -3.0167,0.7191 -6.0729,1.2774 -9.1169,1.8798 -2.3435,0.4903 -2.3435,0.4903 -4.5557,1.2339 -1.7983,0.5736 -3.4052,0.8979 -5.2738,1.1494 -5.7803,0.9523 -11.3247,2.7599 -16.9186,4.4135 -2.1544,0.624 -4.3252,1.184 -6.4983,1.7453 -6.9712,1.8908 -13.72723,4.4119 -20.51183,6.8337 -1.0012,0.3536 -2.0026,0.7069 -3.0041,1.0599 -19.7512,6.9914 -39.6074,14.5395 -58.2671,23.9127 0,0.4454 0,0.8909 0,1.3498 6.6355,-0.4172 13.2396,-0.9636 19.8515,-1.6451 0.8311,-0.082 1.6623,-0.1644 2.5186,-0.2491 4.4135,-0.4518 8.7437,-1.0461 13.102,-1.8467 3.0945,-0.5151 6.2096,-0.7666 9.3369,-1.0258 1.2419,-0.1036 2.4835,-0.2097 3.7249,-0.319 0.5371,-0.045 1.0742,-0.089 1.6276,-0.1346 1.2652,-0.06 1.2652,-0.06 1.9542,-0.8541 0.9344,-0.1439 1.8752,-0.2497 2.8171,-0.3374 0.5665,-0.055 1.133,-0.1114 1.7167,-0.1688 1.8047,-0.1687 1.8047,-0.1687 3.6093,-0.3374 0.5665,-0.055 1.133,-0.1114 1.7167,-0.1688 0.5229,-0.049 1.0458,-0.097 1.5846,-0.1476 1.2492,-0.074 1.2492,-0.074 1.9367,-0.8648 2.5604,-0.3244 5.12061,-0.5891 7.68921,-0.8436 2.71882,-0.053 2.71882,-0.053 4.98762,-1.1812 2.5701,-0.3696 5.1472,-0.6524 7.7277,-0.9464 2.3845,-0.3049 4.6601,-0.8116 6.9848,-1.3965 2.7601,-0.6628 5.5593,-1.147 8.3523,-1.6645 5.2697,-0.9942 10.4726,-2.1166 15.67,-3.4168 0.9552,-0.2272 1.9107,-0.4529 2.8665,-0.6776 0.5018,-0.1183 1.0036,-0.2366 1.5207,-0.3586 0.9777,-0.2303 1.9557,-0.4597 2.934,-0.6881 2.7744,-0.6584 5.473,-1.4269 8.1726,-2.3253 3.7365,-1.2118 7.4745,-2.3359 11.2683,-3.3747 0.9801,-0.3065 1.9584,-0.618 2.9353,-0.9333 2.1629,-0.6953 4.328,-1.3821 6.498,-2.0565 5.5739,-1.7424 11.0433,-3.5566 16.4237,-5.7975 1.6094,-0.6618 1.6094,-0.6618 3.7222,-1.3367 0,-0.4455 0,-0.8909 0,-1.3499 0.6065,-0.068 1.2129,-0.1357 1.8378,-0.2056 6.5518,-1.2877 13.5293,-5.7724 18.586,-9.9184 0,-0.4455 0,-0.8909 0,-1.3499 -11.4327,-1.1015 -22.754,-0.737 -34.201,-0.084 z M 663.12781,891.0584 c -10.4509,3.3791 -20.6956,7.4723 -30.5091,12.3017 0,0.4455 0,0.891 0,1.3499 5.0559,0.2217 9.4289,-0.3595 14.3055,-1.603 4.2006,-1.0209 8.3325,-1.9679 12.6328,-2.531 3.0548,-0.4048 5.7794,-1.0294 8.6713,-2.0432 2.1753,-0.725 4.3817,-1.295 6.6025,-1.8798 6.3914,-1.7436 12.2884,-4.1718 18.3109,-6.8337 0.5259,-0.2299 1.0519,-0.4598 1.5937,-0.6967 0.4972,-0.2234 0.9944,-0.4468 1.5067,-0.6769 0.4457,-0.1984 0.8914,-0.3968 1.3506,-0.6013 1.3457,-0.7486 2.2899,-1.6141 3.34,-2.7075 -8.8425,-4.2371 -29.0453,3.2161 -37.8049,5.9215 z"
     fill="#1b1d1d"
     id="path1"
     style="fill:#000000;fill-opacity:1;stroke-width:0.689445" />
</svg>
